<svg width="16" height="16" viewBox="0 0 16 16" fill="none" xmlns="http://www.w3.org/2000/svg">
<mask id="mask0_362_1979" style="mask-type:alpha" maskUnits="userSpaceOnUse" x="0" y="0" width="16" height="16">
<rect width="16" height="16" fill="#D9D9D9"/>
</mask>
<g mask="url(#mask0_362_1979)">
<path d="M8 10.1671C7.92222 10.1671 7.84733 10.1533 7.77533 10.1258C7.70289 10.0978 7.63889 10.0505 7.58333 9.98379L5.5 7.91712C5.41111 7.82823 5.36667 7.71157 5.36667 7.56712C5.36667 7.42268 5.41111 7.30601 5.5 7.21712C5.6 7.11712 5.71933 7.06423 5.858 7.05846C5.99711 7.05312 6.11667 7.10046 6.21667 7.20046L7.5 8.48379V3.38379C7.5 3.23934 7.54733 3.11979 7.642 3.02512C7.73622 2.9309 7.85556 2.88379 8 2.88379C8.14444 2.88379 8.264 2.9309 8.35867 3.02512C8.45289 3.11979 8.5 3.23934 8.5 3.38379V8.48379L9.78333 7.20046C9.87222 7.11157 9.98889 7.06712 10.1333 7.06712C10.2778 7.06712 10.4 7.11712 10.5 7.21712C10.5889 7.30601 10.6333 7.41979 10.6333 7.55846C10.6333 7.69757 10.5889 7.81712 10.5 7.91712L8.41667 9.98379C8.36111 10.0505 8.29733 10.0978 8.22533 10.1258C8.15289 10.1533 8.07778 10.1671 8 10.1671ZM4.2 13.0005C3.86667 13.0005 3.58333 12.8838 3.35 12.6505C3.11667 12.4171 3 12.1338 3 11.8005V10.5005C3 10.356 3.04733 10.2365 3.142 10.1418C3.23622 10.0476 3.35556 10.0005 3.5 10.0005C3.64444 10.0005 3.76378 10.0476 3.858 10.1418C3.95267 10.2365 4 10.356 4 10.5005V11.8005C4 11.8449 4.02222 11.8893 4.06667 11.9338C4.11111 11.9782 4.15556 12.0005 4.2 12.0005H11.8C11.8444 12.0005 11.8889 11.9782 11.9333 11.9338C11.9778 11.8893 12 11.8449 12 11.8005V10.5005C12 10.356 12.0471 10.2365 12.1413 10.1418C12.236 10.0476 12.3556 10.0005 12.5 10.0005C12.6444 10.0005 12.764 10.0476 12.8587 10.1418C12.9529 10.2365 13 10.356 13 10.5005V11.8005C13 12.1338 12.8833 12.4171 12.65 12.6505C12.4167 12.8838 12.1333 13.0005 11.8 13.0005H4.2Z" fill="white"/>
</g>
</svg>
