<svg width="32" height="32" viewBox="0 0 32 32" fill="none" xmlns="http://www.w3.org/2000/svg">
<g clip-path="url(#clip0_362_1420)">
<path d="M15.9998 31.2129C24.3728 31.2129 31.1604 24.4253 31.1604 16.0523C31.1604 7.67926 24.3728 0.891602 15.9998 0.891602C7.62679 0.891602 0.839138 7.67926 0.839138 16.0523C0.839138 24.4253 7.62679 31.2129 15.9998 31.2129Z" fill="white"/>
<path d="M15.9996 0.209961C7.23893 0.209961 0.104507 7.3444 0.104507 16.1051C0.104507 24.8657 7.23893 32.0001 15.9996 32.0001C24.7602 32.0001 31.8947 24.8657 31.8947 16.1051C31.8947 7.29194 24.7602 0.209961 15.9996 0.209961ZM6.45204 8.2362C6.97663 7.65915 7.81598 7.65914 8.39303 8.13128C10.6488 10.1772 11.9602 13.1149 11.9602 16.21C11.9602 19.1477 10.8061 21.8755 8.76025 23.9214C8.49795 24.1837 8.13073 24.3411 7.81597 24.3411C7.44876 24.3411 7.13401 24.1837 6.87172 23.9214C6.34713 23.3969 6.34713 22.505 6.87172 21.9805C8.39303 20.4591 9.28484 18.3608 9.28484 16.21C9.28484 13.9018 8.28811 11.6985 6.60942 10.1772C5.97991 9.65258 5.9799 8.81325 6.45204 8.2362ZM14.0586 16.0526C14.0586 15.0034 14.8979 14.1116 15.9996 14.1116C17.1012 14.1116 17.9406 14.951 17.9406 16.0526C17.9406 17.1018 17.1012 17.9936 15.9996 17.9936C14.8979 17.9936 14.0586 17.1542 14.0586 16.0526ZM25.1799 21.9805C25.7045 22.505 25.7045 23.3969 25.1799 23.9214C24.9176 24.1837 24.5504 24.3411 24.2357 24.3411C23.8684 24.3411 23.5537 24.1837 23.2914 23.9214C21.2455 21.8755 20.0914 19.0952 20.0914 16.21C20.0914 13.1673 21.4029 10.2296 23.6586 8.13128C24.2357 7.60669 25.075 7.65915 25.5996 8.2362C26.1242 8.81325 26.0717 9.65258 25.4947 10.1772C23.816 11.6985 22.8193 13.9018 22.8193 16.21C22.7668 18.4132 23.6061 20.4591 25.1799 21.9805Z" fill="#EC5942"/>
</g>
<defs>
<clipPath id="clip0_362_1420">
<rect width="32" height="32" fill="white"/>
</clipPath>
</defs>
</svg>
