<svg width="38" height="55" viewBox="0 0 38 55" fill="none" xmlns="http://www.w3.org/2000/svg">
<circle cx="18.5424" cy="18.5" r="9.5" fill="#4E62EE"/>
<circle cx="18.5424" cy="18.5" r="16.5" stroke="#4E62EE" stroke-width="4"/>
<path d="M16.891 54.5C16.241 54.5 15.5823 54.3823 14.915 54.1468C14.2462 53.9128 13.7132 53.5972 13.316 53.2L4.92013 44.3708C4.5229 43.9736 4.31562 43.4681 4.29829 42.8542C4.27951 42.2403 4.43263 41.6986 4.75763 41.2292C5.0104 40.8681 5.35346 40.6059 5.78679 40.4427C6.22013 40.2809 6.70762 40.2722 7.24929 40.4167L14.291 42.0417V18.75C14.291 17.8472 14.6073 17.0802 15.24 16.449C15.8712 15.8163 16.6382 15.5 17.541 15.5C18.4437 15.5 19.2115 15.8163 19.8441 16.449C20.4753 17.0802 20.791 17.8472 20.791 18.75V31.75H22.741C23.0298 31.75 23.3548 31.7861 23.716 31.8583C24.0771 31.9306 24.4021 32.0389 24.691 32.1833L33.5743 36.625C34.4049 37.0222 35.0368 37.6448 35.4701 38.4927C35.9035 39.342 36.0479 40.2181 35.9035 41.1208L34.5493 50.7625C34.3687 51.8458 33.8812 52.7392 33.0868 53.4427C32.2923 54.1476 31.3535 54.5 30.2701 54.5H16.891Z" fill="#FFCE1A"/>
</svg>
