<svg width="80" height="16" viewBox="0 0 80 16" fill="none" xmlns="http://www.w3.org/2000/svg">
<mask id="mask0_8_929" style="mask-type:alpha" maskUnits="userSpaceOnUse" x="0" y="0" width="16" height="16">
<rect width="16" height="16" fill="#D9D9D9"/>
</mask>
<g mask="url(#mask0_8_929)">
<path d="M7.99999 12.1836L5.23332 13.8503C5.1111 13.9281 4.98332 13.9614 4.84999 13.9503C4.71665 13.9392 4.59999 13.8947 4.49999 13.817C4.39999 13.7392 4.32221 13.6421 4.26665 13.5256C4.2111 13.4087 4.19999 13.2781 4.23332 13.1336L4.96665 9.98363L2.51665 7.86696C2.40554 7.76696 2.33621 7.65296 2.30865 7.52496C2.28065 7.3974 2.28887 7.27252 2.33332 7.15029C2.37776 7.02807 2.44443 6.92807 2.53332 6.85029C2.62221 6.77251 2.74443 6.72252 2.89999 6.70029L6.13332 6.41696L7.38332 3.45029C7.43887 3.31696 7.5251 3.21696 7.64199 3.15029C7.75843 3.08363 7.87776 3.05029 7.99999 3.05029C8.12221 3.05029 8.24176 3.08363 8.35865 3.15029C8.4751 3.21696 8.5611 3.31696 8.61665 3.45029L9.86665 6.41696L13.1 6.70029C13.2555 6.72252 13.3778 6.77251 13.4667 6.85029C13.5555 6.92807 13.6222 7.02807 13.6667 7.15029C13.7111 7.27252 13.7195 7.3974 13.692 7.52496C13.664 7.65296 13.5944 7.76696 13.4833 7.86696L11.0333 9.98363L11.7667 13.1336C11.8 13.2781 11.7889 13.4087 11.7333 13.5256C11.6778 13.6421 11.6 13.7392 11.5 13.817C11.4 13.8947 11.2833 13.9392 11.15 13.9503C11.0167 13.9614 10.8889 13.9281 10.7667 13.8503L7.99999 12.1836Z" fill="#F5BD2D"/>
</g>
<mask id="mask1_8_929" style="mask-type:alpha" maskUnits="userSpaceOnUse" x="16" y="0" width="16" height="16">
<rect x="16" width="16" height="16" fill="#D9D9D9"/>
</mask>
<g mask="url(#mask1_8_929)">
<path d="M24 12.1836L21.2333 13.8503C21.1111 13.9281 20.9833 13.9614 20.85 13.9503C20.7167 13.9392 20.6 13.8947 20.5 13.817C20.4 13.7392 20.3222 13.6421 20.2667 13.5256C20.2111 13.4087 20.2 13.2781 20.2333 13.1336L20.9667 9.98363L18.5167 7.86696C18.4055 7.76696 18.3362 7.65296 18.3087 7.52496C18.2807 7.3974 18.2889 7.27252 18.3333 7.15029C18.3778 7.02807 18.4444 6.92807 18.5333 6.85029C18.6222 6.77251 18.7444 6.72252 18.9 6.70029L22.1333 6.41696L23.3833 3.45029C23.4389 3.31696 23.5251 3.21696 23.642 3.15029C23.7584 3.08363 23.8778 3.05029 24 3.05029C24.1222 3.05029 24.2418 3.08363 24.3587 3.15029C24.4751 3.21696 24.5611 3.31696 24.6167 3.45029L25.8667 6.41696L29.1 6.70029C29.2555 6.72252 29.3778 6.77251 29.4667 6.85029C29.5555 6.92807 29.6222 7.02807 29.6667 7.15029C29.7111 7.27252 29.7195 7.3974 29.692 7.52496C29.664 7.65296 29.5944 7.76696 29.4833 7.86696L27.0333 9.98363L27.7667 13.1336C27.8 13.2781 27.7889 13.4087 27.7333 13.5256C27.6778 13.6421 27.6 13.7392 27.5 13.817C27.4 13.8947 27.2833 13.9392 27.15 13.9503C27.0167 13.9614 26.8889 13.9281 26.7667 13.8503L24 12.1836Z" fill="#F5BD2D"/>
</g>
<mask id="mask2_8_929" style="mask-type:alpha" maskUnits="userSpaceOnUse" x="32" y="0" width="16" height="16">
<rect x="32" width="16" height="16" fill="#D9D9D9"/>
</mask>
<g mask="url(#mask2_8_929)">
<path d="M40 12.1836L37.2333 13.8503C37.1111 13.9281 36.9833 13.9614 36.85 13.9503C36.7167 13.9392 36.6 13.8947 36.5 13.817C36.4 13.7392 36.3222 13.6421 36.2667 13.5256C36.2111 13.4087 36.2 13.2781 36.2333 13.1336L36.9667 9.98363L34.5167 7.86696C34.4055 7.76696 34.3362 7.65296 34.3087 7.52496C34.2807 7.3974 34.2889 7.27252 34.3333 7.15029C34.3778 7.02807 34.4444 6.92807 34.5333 6.85029C34.6222 6.77251 34.7444 6.72252 34.9 6.70029L38.1333 6.41696L39.3833 3.45029C39.4389 3.31696 39.5251 3.21696 39.642 3.15029C39.7584 3.08363 39.8778 3.05029 40 3.05029C40.1222 3.05029 40.2418 3.08363 40.3587 3.15029C40.4751 3.21696 40.5611 3.31696 40.6167 3.45029L41.8667 6.41696L45.1 6.70029C45.2555 6.72252 45.3778 6.77251 45.4667 6.85029C45.5555 6.92807 45.6222 7.02807 45.6667 7.15029C45.7111 7.27252 45.7195 7.3974 45.692 7.52496C45.664 7.65296 45.5944 7.76696 45.4833 7.86696L43.0333 9.98363L43.7667 13.1336C43.8 13.2781 43.7889 13.4087 43.7333 13.5256C43.6778 13.6421 43.6 13.7392 43.5 13.817C43.4 13.8947 43.2833 13.9392 43.15 13.9503C43.0167 13.9614 42.8889 13.9281 42.7667 13.8503L40 12.1836Z" fill="#F5BD2D"/>
</g>
<mask id="mask3_8_929" style="mask-type:alpha" maskUnits="userSpaceOnUse" x="48" y="0" width="16" height="16">
<rect x="48" width="16" height="16" fill="#D9D9D9"/>
</mask>
<g mask="url(#mask3_8_929)">
<path d="M56 12.1836L53.2333 13.8503C53.1111 13.9281 52.9833 13.9614 52.85 13.9503C52.7167 13.9392 52.6 13.8947 52.5 13.817C52.4 13.7392 52.3222 13.6421 52.2667 13.5256C52.2111 13.4087 52.2 13.2781 52.2333 13.1336L52.9667 9.98363L50.5167 7.86696C50.4055 7.76696 50.3362 7.65296 50.3087 7.52496C50.2807 7.3974 50.2889 7.27252 50.3333 7.15029C50.3778 7.02807 50.4444 6.92807 50.5333 6.85029C50.6222 6.77251 50.7444 6.72252 50.9 6.70029L54.1333 6.41696L55.3833 3.45029C55.4389 3.31696 55.5251 3.21696 55.642 3.15029C55.7584 3.08363 55.8778 3.05029 56 3.05029C56.1222 3.05029 56.2418 3.08363 56.3587 3.15029C56.4751 3.21696 56.5611 3.31696 56.6167 3.45029L57.8667 6.41696L61.1 6.70029C61.2555 6.72252 61.3778 6.77251 61.4667 6.85029C61.5555 6.92807 61.6222 7.02807 61.6667 7.15029C61.7111 7.27252 61.7195 7.3974 61.692 7.52496C61.664 7.65296 61.5944 7.76696 61.4833 7.86696L59.0333 9.98363L59.7667 13.1336C59.8 13.2781 59.7889 13.4087 59.7333 13.5256C59.6778 13.6421 59.6 13.7392 59.5 13.817C59.4 13.8947 59.2833 13.9392 59.15 13.9503C59.0167 13.9614 58.8889 13.9281 58.7667 13.8503L56 12.1836Z" fill="#F5BD2D"/>
</g>
<mask id="mask4_8_929" style="mask-type:alpha" maskUnits="userSpaceOnUse" x="64" y="0" width="16" height="16">
<rect x="64" width="16" height="16" fill="#D9D9D9"/>
</mask>
<g mask="url(#mask4_8_929)">
<path d="M72 12.1836L69.2333 13.8503C69.1111 13.9281 68.9833 13.9614 68.85 13.9503C68.7167 13.9392 68.6 13.8947 68.5 13.817C68.4 13.7392 68.3222 13.6421 68.2667 13.5256C68.2111 13.4087 68.2 13.2781 68.2333 13.1336L68.9667 9.98363L66.5167 7.86696C66.4055 7.76696 66.3362 7.65296 66.3087 7.52496C66.2807 7.3974 66.2889 7.27252 66.3333 7.15029C66.3778 7.02807 66.4444 6.92807 66.5333 6.85029C66.6222 6.77251 66.7444 6.72252 66.9 6.70029L70.1333 6.41696L71.3833 3.45029C71.4389 3.31696 71.5251 3.21696 71.642 3.15029C71.7584 3.08363 71.8778 3.05029 72 3.05029C72.1222 3.05029 72.2418 3.08363 72.3587 3.15029C72.4751 3.21696 72.5611 3.31696 72.6167 3.45029L73.8667 6.41696L77.1 6.70029C77.2555 6.72252 77.3778 6.77251 77.4667 6.85029C77.5555 6.92807 77.6222 7.02807 77.6667 7.15029C77.7111 7.27252 77.7195 7.3974 77.692 7.52496C77.664 7.65296 77.5944 7.76696 77.4833 7.86696L75.0333 9.98363L75.7667 13.1336C75.8 13.2781 75.7889 13.4087 75.7333 13.5256C75.6778 13.6421 75.6 13.7392 75.5 13.817C75.4 13.8947 75.2833 13.9392 75.15 13.9503C75.0167 13.9614 74.8889 13.9281 74.7667 13.8503L72 12.1836Z" fill="#F5BD2D"/>
</g>
</svg>
