<svg width="20" height="20" viewBox="0 0 20 20" fill="none" xmlns="http://www.w3.org/2000/svg">
<mask id="mask0_362_1431" style="mask-type:alpha" maskUnits="userSpaceOnUse" x="0" y="0" width="20" height="20">
<rect width="20" height="20" fill="#D9D9D9"/>
</mask>
<g mask="url(#mask0_362_1431)">
<path d="M5 16.6663C4.54167 16.6663 4.14945 16.5033 3.82334 16.1772C3.49667 15.8505 3.33334 15.458 3.33334 14.9997C3.33334 14.5413 3.49667 14.1488 3.82334 13.8222C4.14945 13.4961 4.54167 13.333 5 13.333C5.45834 13.333 5.85056 13.4961 6.17667 13.8222C6.50334 14.1488 6.66667 14.5413 6.66667 14.9997C6.66667 15.458 6.50334 15.8505 6.17667 16.1772C5.85056 16.5033 5.45834 16.6663 5 16.6663ZM10 16.6663C9.54167 16.6663 9.14945 16.5033 8.82334 16.1772C8.49667 15.8505 8.33334 15.458 8.33334 14.9997C8.33334 14.5413 8.49667 14.1488 8.82334 13.8222C9.14945 13.4961 9.54167 13.333 10 13.333C10.4583 13.333 10.8508 13.4961 11.1775 13.8222C11.5036 14.1488 11.6667 14.5413 11.6667 14.9997C11.6667 15.458 11.5036 15.8505 11.1775 16.1772C10.8508 16.5033 10.4583 16.6663 10 16.6663ZM15 16.6663C14.5417 16.6663 14.1492 16.5033 13.8225 16.1772C13.4964 15.8505 13.3333 15.458 13.3333 14.9997C13.3333 14.5413 13.4964 14.1488 13.8225 13.8222C14.1492 13.4961 14.5417 13.333 15 13.333C15.4583 13.333 15.8508 13.4961 16.1775 13.8222C16.5036 14.1488 16.6667 14.5413 16.6667 14.9997C16.6667 15.458 16.5036 15.8505 16.1775 16.1772C15.8508 16.5033 15.4583 16.6663 15 16.6663ZM5 11.6663C4.54167 11.6663 4.14945 11.503 3.82334 11.1763C3.49667 10.8502 3.33334 10.458 3.33334 9.99967C3.33334 9.54134 3.49667 9.14884 3.82334 8.82217C4.14945 8.49606 4.54167 8.33301 5 8.33301C5.45834 8.33301 5.85056 8.49606 6.17667 8.82217C6.50334 9.14884 6.66667 9.54134 6.66667 9.99967C6.66667 10.458 6.50334 10.8502 6.17667 11.1763C5.85056 11.503 5.45834 11.6663 5 11.6663ZM10 11.6663C9.54167 11.6663 9.14945 11.503 8.82334 11.1763C8.49667 10.8502 8.33334 10.458 8.33334 9.99967C8.33334 9.54134 8.49667 9.14884 8.82334 8.82217C9.14945 8.49606 9.54167 8.33301 10 8.33301C10.4583 8.33301 10.8508 8.49606 11.1775 8.82217C11.5036 9.14884 11.6667 9.54134 11.6667 9.99967C11.6667 10.458 11.5036 10.8502 11.1775 11.1763C10.8508 11.503 10.4583 11.6663 10 11.6663ZM15 11.6663C14.5417 11.6663 14.1492 11.503 13.8225 11.1763C13.4964 10.8502 13.3333 10.458 13.3333 9.99967C13.3333 9.54134 13.4964 9.14884 13.8225 8.82217C14.1492 8.49606 14.5417 8.33301 15 8.33301C15.4583 8.33301 15.8508 8.49606 16.1775 8.82217C16.5036 9.14884 16.6667 9.54134 16.6667 9.99967C16.6667 10.458 16.5036 10.8502 16.1775 11.1763C15.8508 11.503 15.4583 11.6663 15 11.6663ZM5 6.66634C4.54167 6.66634 4.14945 6.50301 3.82334 6.17634C3.49667 5.85023 3.33334 5.45801 3.33334 4.99967C3.33334 4.54134 3.49667 4.14912 3.82334 3.82301C4.14945 3.49634 4.54167 3.33301 5 3.33301C5.45834 3.33301 5.85056 3.49634 6.17667 3.82301C6.50334 4.14912 6.66667 4.54134 6.66667 4.99967C6.66667 5.45801 6.50334 5.85023 6.17667 6.17634C5.85056 6.50301 5.45834 6.66634 5 6.66634ZM10 6.66634C9.54167 6.66634 9.14945 6.50301 8.82334 6.17634C8.49667 5.85023 8.33334 5.45801 8.33334 4.99967C8.33334 4.54134 8.49667 4.14912 8.82334 3.82301C9.14945 3.49634 9.54167 3.33301 10 3.33301C10.4583 3.33301 10.8508 3.49634 11.1775 3.82301C11.5036 4.14912 11.6667 4.54134 11.6667 4.99967C11.6667 5.45801 11.5036 5.85023 11.1775 6.17634C10.8508 6.50301 10.4583 6.66634 10 6.66634ZM15 6.66634C14.5417 6.66634 14.1492 6.50301 13.8225 6.17634C13.4964 5.85023 13.3333 5.45801 13.3333 4.99967C13.3333 4.54134 13.4964 4.14912 13.8225 3.82301C14.1492 3.49634 14.5417 3.33301 15 3.33301C15.4583 3.33301 15.8508 3.49634 16.1775 3.82301C16.5036 4.14912 16.6667 4.54134 16.6667 4.99967C16.6667 5.45801 16.5036 5.85023 16.1775 6.17634C15.8508 6.50301 15.4583 6.66634 15 6.66634Z" fill="white"/>
</g>
</svg>
