<svg width="40" height="40" viewBox="0 0 40 40" fill="none" xmlns="http://www.w3.org/2000/svg">
<mask id="mask0_167_2098" style="mask-type:alpha" maskUnits="userSpaceOnUse" x="0" y="0" width="40" height="40">
<rect width="40" height="40" fill="#D9D9D9"/>
</mask>
<g mask="url(#mask0_167_2098)">
<path d="M15.9583 24.1662H10.875C10.3194 24.1662 9.91 23.9162 9.64667 23.4162C9.38222 22.9162 9.41667 22.444 9.75 21.9995L20.6667 6.24953C20.8889 5.9162 21.1739 5.69397 21.5217 5.58286C21.8683 5.47175 22.2361 5.48564 22.625 5.62453C22.9861 5.76342 23.2567 5.99231 23.4367 6.3112C23.6178 6.6312 23.6806 6.98564 23.625 7.37453L22.375 17.4995H28.625C29.2083 17.4995 29.6183 17.7634 29.855 18.2912C30.0906 18.819 30.0278 19.319 29.6667 19.7912L17.5833 34.2495C17.3333 34.5273 17.035 34.7079 16.6883 34.7912C16.3406 34.8745 16 34.8468 15.6667 34.7079C15.3333 34.5412 15.0767 34.3051 14.8967 33.9995C14.7156 33.694 14.6528 33.3468 14.7083 32.9579L15.9583 24.1662Z" fill="#FFD640"/>
</g>
</svg>
