<svg width="20" height="20" viewBox="0 0 20 20" fill="none" xmlns="http://www.w3.org/2000/svg">
<mask id="mask0_323_1335" style="mask-type:alpha" maskUnits="userSpaceOnUse" x="0" y="0" width="20" height="20">
<rect width="20" height="20" fill="#D9D9D9"/>
</mask>
<g mask="url(#mask0_323_1335)">
<path d="M10.0002 10.8752L5.771 15.1043C5.65989 15.2154 5.51766 15.2743 5.34433 15.281C5.17044 15.2882 5.021 15.2293 4.896 15.1043C4.771 14.9793 4.7085 14.8335 4.7085 14.6668C4.7085 14.5002 4.771 14.3543 4.896 14.2293L9.12516 10.0002L4.896 5.771C4.78488 5.65989 4.726 5.51739 4.71933 5.3435C4.71211 5.17016 4.771 5.021 4.896 4.896C5.021 4.771 5.16683 4.7085 5.3335 4.7085C5.50016 4.7085 5.646 4.771 5.771 4.896L10.0002 9.12516L14.2293 4.896C14.3404 4.78488 14.4829 4.72572 14.6568 4.7185C14.8302 4.71183 14.9793 4.771 15.1043 4.896C15.2293 5.021 15.2918 5.16683 15.2918 5.3335C15.2918 5.50016 15.2293 5.646 15.1043 5.771L10.8752 10.0002L15.1043 14.2293C15.2154 14.3404 15.2743 14.4827 15.281 14.656C15.2882 14.8299 15.2293 14.9793 15.1043 15.1043C14.9793 15.2293 14.8335 15.2918 14.6668 15.2918C14.5002 15.2918 14.3543 15.2293 14.2293 15.1043L10.0002 10.8752Z" fill="white"/>
</g>
</svg>
