<svg width="51" height="51" viewBox="0 0 51 51" fill="none" xmlns="http://www.w3.org/2000/svg">
<mask id="mask0_8_995" style="mask-type:alpha" maskUnits="userSpaceOnUse" x="0" y="0" width="51" height="51">
<rect width="51" height="51" fill="#D9D9D9"/>
</mask>
<g mask="url(#mask0_8_995)">
<path d="M35.4875 36.7625C35.0979 37.1521 34.6113 37.3469 34.0276 37.3469C33.4425 37.3469 32.9375 37.1344 32.5125 36.7094C32.0875 36.2844 31.875 35.7793 31.875 35.1942C31.875 34.6106 32.0875 34.1062 32.5125 33.6812L40.7468 25.4469L32.4594 17.1594C32.0698 16.7698 31.8835 16.2825 31.9005 15.6974C31.9189 15.1137 32.1229 14.6271 32.5125 14.2375C32.9021 13.8479 33.3979 13.6531 34 13.6531C34.6021 13.6531 35.0979 13.8479 35.4875 14.2375L45.2625 24.0125C45.6875 24.4375 45.9 24.9333 45.9 25.5C45.9 26.0667 45.6875 26.5625 45.2625 26.9875L35.4875 36.7625ZM15.5125 36.7625L5.73748 26.9875C5.31248 26.5625 5.09998 26.0667 5.09998 25.5C5.09998 24.9333 5.31248 24.4375 5.73748 24.0125L15.5125 14.2375C15.9021 13.8479 16.3979 13.6439 17 13.6255C17.6021 13.6085 18.1156 13.8125 18.5406 14.2375C18.9656 14.6625 19.1781 15.1668 19.1781 15.7505C19.1781 16.3356 18.9656 16.8406 18.5406 17.2656L10.2531 25.5531L18.5406 33.8406C18.9302 34.2302 19.1165 34.7168 19.0995 35.3005C19.0811 35.8856 18.8771 36.3729 18.4875 36.7625C18.0979 37.1521 17.6021 37.3469 17 37.3469C16.3979 37.3469 15.9021 37.1521 15.5125 36.7625Z" fill="#4E62EE"/>
</g>
</svg>
