<svg width="178" height="178" viewBox="0 0 178 178" fill="none" xmlns="http://www.w3.org/2000/svg">
<mask id="mask0_167_2515" style="mask-type:alpha" maskUnits="userSpaceOnUse" x="0" y="0" width="178" height="178">
<rect x="38.1577" y="0.938477" width="143.804" height="143.804" transform="rotate(15 38.1577 0.938477)" fill="#D9D9D9"/>
</mask>
<g mask="url(#mask0_167_2515)">
<mask id="mask1_167_2515" style="mask-type:alpha" maskUnits="userSpaceOnUse" x="6" y="5" width="163" height="163">
<rect x="40.8599" y="5.57129" width="132.48" height="132.48" transform="rotate(15 40.8599 5.57129)" fill="#D9D9D9"/>
</mask>
<g mask="url(#mask1_167_2515)">
<path d="M58.564 93.1885L64.314 133.438L110.314 90.3135L58.564 93.1885Z" fill="#92A0FF"/>
<path d="M137.842 44.6872C139.571 38.4621 133.589 32.8609 127.491 34.9952L41.2775 65.17C35.2008 67.2968 33.9976 75.3648 39.1894 79.1721L103.85 126.59C108.362 129.899 114.791 127.671 116.289 122.28L137.842 44.6872Z" fill="white"/>
<path d="M65.6303 129.192C65.3145 130.211 63.8361 130.093 63.6852 129.037L58.6472 93.771C58.5958 93.4114 58.7434 93.0523 59.0327 92.8329L133.034 36.6938C134.006 35.9568 135.2 37.2695 134.375 38.1672L73.3788 104.523C73.2785 104.632 73.2037 104.762 73.1598 104.903L65.6303 129.192Z" fill="#B0BBFF"/>
</g>
</g>
</svg>
