<svg width="151" height="32" viewBox="0 0 151 32" fill="none" xmlns="http://www.w3.org/2000/svg">
<g clip-path="url(#clip0_5_208)">
<g clip-path="url(#clip1_5_208)">
<path d="M15.9998 31.2132C24.3728 31.2132 31.1604 24.4256 31.1604 16.0526C31.1604 7.67956 24.3728 0.891906 15.9998 0.891906C7.6268 0.891906 0.839142 7.67956 0.839142 16.0526C0.839142 24.4256 7.6268 31.2132 15.9998 31.2132Z" fill="white"/>
<path d="M64.0527 9.54764C60.3281 9.54764 57.3379 12.5903 57.3379 16.2624C57.3379 19.9345 60.3805 22.9771 64.0527 22.9771C66.2559 22.9771 68.2494 21.8755 69.4559 20.2493L67.2527 18.623C66.5182 19.6198 65.3641 20.2493 64.0527 20.2493C62.3215 20.2493 60.8527 19.1476 60.3281 17.6263H70.6625C70.7674 17.2067 70.8199 16.7345 70.8199 16.2624C70.8199 12.5903 67.7773 9.54764 64.0527 9.54764ZM60.3281 14.8985C60.9051 13.3771 62.374 12.2755 64.0527 12.2755C65.7838 12.2755 67.2527 13.3771 67.7773 14.8985H60.3281Z" fill="white"/>
<path d="M87.5018 9.54764C85.8756 9.54764 84.4592 10.2821 83.4625 11.3837C82.4658 10.2821 80.9969 9.54764 79.4231 9.54764C78.6887 9.54764 77.692 9.91484 76.7477 10.6493V9.54764H73.9674V23.0821H76.6953V15.1083C76.6953 13.6919 77.7445 12.4853 79.1609 12.3804C80.7346 12.2755 82.0461 13.5345 82.0461 15.0558V23.0821H84.774V15.1083C84.774 13.6919 85.8231 12.4853 87.2395 12.3804C88.8133 12.2755 90.1248 13.5345 90.1248 15.0558V23.0821H92.8527V15.1607C92.9576 12.0657 90.5445 9.54764 87.5018 9.54764Z" fill="white"/>
<path d="M112.787 14.9509V22.9771H115.515V14.9509C115.515 13.4821 116.722 12.2755 118.19 12.2755H119.292V9.54764H118.19C115.2 9.54764 112.787 11.9608 112.787 14.9509Z" fill="white"/>
<path d="M103.03 9.54764C99.3051 9.54764 96.315 12.5903 96.315 16.2624C96.315 19.9345 99.3576 22.9771 103.03 22.9771C105.233 22.9771 107.226 21.8755 108.433 20.2493L106.23 18.623C105.495 19.6198 104.341 20.2493 103.03 20.2493C101.299 20.2493 99.8297 19.1476 99.3051 17.6263H109.64C109.744 17.2067 109.797 16.7345 109.797 16.2624C109.797 12.5903 106.754 9.54764 103.03 9.54764ZM99.3051 14.8985C99.8822 13.3771 101.351 12.2755 103.03 12.2755C104.708 12.2755 106.23 13.3771 106.754 14.8985H99.3051Z" fill="white"/>
<path d="M48.1051 9.54764C47.3182 9.54764 46.1117 9.86239 44.9576 10.8067V8.86567C44.9576 7.13452 46.374 5.71813 48.1051 5.71813H48.1576V2.99027H48.1051C44.8527 2.99027 42.1772 5.66567 42.1772 8.91813V22.9771H44.9051V15.5804C44.9051 13.9017 46.2166 12.4329 47.8953 12.3804C49.6789 12.2755 51.2002 13.7444 51.2002 15.528V23.0296H53.9281V15.528C53.9805 12.1706 51.3576 9.54764 48.1051 9.54764Z" fill="white"/>
<path d="M149.876 23.2394V9.54764H147.148V16.9444C147.148 18.623 145.836 20.0919 144.158 20.1444C142.374 20.2493 140.853 18.7804 140.853 16.9968V9.49518H138.125V16.9968C138.125 20.2493 140.748 22.8722 144 22.8722C144.787 22.8722 145.994 22.5575 147.148 21.6132V23.187C147.148 24.9181 145.731 26.3345 144 26.3345H143.948V29.0624H144C147.2 29.0624 149.771 26.5444 149.928 23.3444V23.2394H149.876Z" fill="white"/>
<path d="M131.83 10.9116C130.833 9.91484 129.469 9.23289 127.895 9.23289C124.171 9.23289 121.181 12.223 121.181 15.9476C121.181 19.6722 124.171 22.6624 127.895 22.6624C129.521 22.6624 130.833 21.928 131.83 20.9837V23.3444C131.83 25.0755 130.413 26.4919 128.682 26.4919H128.63V29.2198H128.682C131.935 29.2198 134.61 26.5444 134.61 23.2919V9.60009H131.882V10.9116H131.83ZM127.895 19.8821C125.692 19.8821 123.961 18.0985 123.961 15.9476C123.961 13.7444 125.744 12.0132 127.895 12.0132C130.099 12.0132 131.83 13.7968 131.83 15.9476C131.83 18.0985 130.046 19.8821 127.895 19.8821Z" fill="white"/>
<path d="M15.9996 0.210041C7.23893 0.210041 0.104507 7.34448 0.104507 16.1051C0.104507 24.8658 7.23893 32.0002 15.9996 32.0002C24.7602 32.0002 31.8947 24.8658 31.8947 16.1051C31.8947 7.29202 24.7602 0.210041 15.9996 0.210041ZM6.45204 8.23628C6.97663 7.65923 7.81598 7.65922 8.39303 8.13136C10.6488 10.1773 11.9602 13.115 11.9602 16.21C11.9602 19.1477 10.8061 21.8756 8.76025 23.9215C8.49795 24.1838 8.13073 24.3412 7.81597 24.3412C7.44876 24.3412 7.13401 24.1838 6.87172 23.9215C6.34713 23.3969 6.34713 22.5051 6.87172 21.9805C8.39303 20.4592 9.28484 18.3609 9.28484 16.21C9.28484 13.9018 8.28811 11.6986 6.60942 10.1773C5.97991 9.65266 5.9799 8.81333 6.45204 8.23628ZM14.0586 16.0527C14.0586 15.0035 14.8979 14.1117 15.9996 14.1117C17.1012 14.1117 17.9406 14.951 17.9406 16.0527C17.9406 17.1019 17.1012 17.9936 15.9996 17.9936C14.8979 17.9936 14.0586 17.1543 14.0586 16.0527ZM25.1799 21.9805C25.7045 22.5051 25.7045 23.3969 25.1799 23.9215C24.9176 24.1838 24.5504 24.3412 24.2357 24.3412C23.8684 24.3412 23.5537 24.1838 23.2914 23.9215C21.2455 21.8756 20.0914 19.0953 20.0914 16.21C20.0914 13.1674 21.4029 10.2297 23.6586 8.13136C24.2357 7.60677 25.075 7.65923 25.5996 8.23628C26.1242 8.81333 26.0717 9.65266 25.4947 10.1773C23.816 11.6986 22.8193 13.9018 22.8193 16.21C22.7668 18.4133 23.6061 20.4592 25.1799 21.9805Z" fill="#EC5942"/>
</g>
</g>
<defs>
<clipPath id="clip0_5_208">
<rect width="150.033" height="32" fill="white"/>
</clipPath>
<clipPath id="clip1_5_208">
<rect width="150.033" height="32" fill="white"/>
</clipPath>
</defs>
</svg>
