<svg width="20" height="20" viewBox="0 0 20 20" fill="none" xmlns="http://www.w3.org/2000/svg">
<path d="M3.55943 4.49623C3.91185 4.09 4.47574 4.09 4.8634 4.42236C6.37883 5.86263 7.25989 7.93069 7.25989 10.1095C7.25989 12.1776 6.48457 14.098 5.11011 15.5382C4.93389 15.7229 4.68719 15.8337 4.47573 15.8337C4.22904 15.8337 4.01759 15.7229 3.84137 15.5382C3.48895 15.1689 3.48895 14.5411 3.84137 14.1718C4.86341 13.1009 5.46253 11.6237 5.46253 10.1095C5.46253 8.48464 4.79292 6.93359 3.66516 5.86262C3.24225 5.49332 3.24224 4.90246 3.55943 4.49623ZM8.6696 9.99876C8.6696 9.26016 9.23348 8.63235 9.97358 8.63235C10.7137 8.63235 11.2776 9.22324 11.2776 9.99876C11.2776 10.7374 10.7137 11.3652 9.97358 11.3652C9.23348 11.3652 8.6696 10.7743 8.6696 9.99876ZM16.141 14.1718C16.4934 14.5411 16.4934 15.1689 16.141 15.5382C15.9648 15.7229 15.7181 15.8337 15.5067 15.8337C15.26 15.8337 15.0485 15.7229 14.8723 15.5382C13.4978 14.098 12.7225 12.1407 12.7225 10.1095C12.7225 7.96762 13.6036 5.89955 15.119 4.42236C15.5067 4.05307 16.0705 4.09 16.423 4.49623C16.7754 4.90246 16.7401 5.49332 16.3525 5.86262C15.2247 6.93359 14.5551 8.48464 14.5551 10.1095C14.5199 11.6606 15.0837 13.1009 16.141 14.1718Z" fill="white"/>
</svg>
