<svg width="16" height="16" viewBox="0 0 16 16" fill="none" xmlns="http://www.w3.org/2000/svg">
<mask id="mask0_167_2010" style="mask-type:alpha" maskUnits="userSpaceOnUse" x="0" y="0" width="16" height="16">
<rect width="16" height="16" fill="#D9D9D9"/>
</mask>
<g mask="url(#mask0_167_2010)">
<path d="M8.00001 7.83333C8.32223 7.83333 8.59734 7.71955 8.82534 7.492C9.0529 7.264 9.16668 6.98889 9.16668 6.66667C9.16668 6.34444 9.0529 6.06933 8.82534 5.84133C8.59734 5.61378 8.32223 5.5 8.00001 5.5C7.67779 5.5 7.40268 5.61378 7.17468 5.84133C6.94712 6.06933 6.83334 6.34444 6.83334 6.66667C6.83334 6.98889 6.94712 7.264 7.17468 7.492C7.40268 7.71955 7.67779 7.83333 8.00001 7.83333ZM8.00001 13.2C9.37779 11.9778 10.4167 10.8082 11.1167 9.69133C11.8167 8.57489 12.1667 7.61111 12.1667 6.8C12.1667 5.53333 11.764 4.5 10.9587 3.7C10.1529 2.9 9.16668 2.5 8.00001 2.5C6.83334 2.5 5.84712 2.9 5.04134 3.7C4.23601 4.5 3.83334 5.53333 3.83334 6.8C3.83334 7.61111 4.18334 8.57489 4.88334 9.69133C5.58334 10.8082 6.62223 11.9778 8.00001 13.2ZM8.00001 14.3C7.92223 14.3 7.84445 14.2889 7.76668 14.2667C7.6889 14.2444 7.61668 14.2056 7.55001 14.15C5.97223 12.7167 4.79179 11.3889 4.00868 10.1667C3.22512 8.94444 2.83334 7.82222 2.83334 6.8C2.83334 5.18889 3.3529 3.90267 4.39201 2.94133C5.43068 1.98044 6.63334 1.5 8.00001 1.5C9.36668 1.5 10.5696 1.98044 11.6087 2.94133C12.6473 3.90267 13.1667 5.18889 13.1667 6.8C13.1667 7.82222 12.7751 8.94444 11.992 10.1667C11.2085 11.3889 10.0278 12.7167 8.45001 14.15C8.38334 14.2056 8.31112 14.2444 8.23334 14.2667C8.15557 14.2889 8.07779 14.3 8.00001 14.3Z" fill="#4E62EE"/>
</g>
</svg>
