<svg width="32" height="33" viewBox="0 0 32 33" fill="none" xmlns="http://www.w3.org/2000/svg">
<mask id="mask0_343_2291" style="mask-type:alpha" maskUnits="userSpaceOnUse" x="0" y="0" width="32" height="33">
<rect y="0.5" width="32" height="32" fill="#D9D9D9"/>
</mask>
<g mask="url(#mask0_343_2291)">
<path d="M18.3335 17.4337C17.4001 17.4337 16.6112 17.1114 15.9668 16.467C15.3224 15.8225 15.0001 15.0337 15.0001 14.1003C15.0001 13.1892 15.3224 12.4061 15.9668 11.751C16.6112 11.095 17.4001 10.767 18.3335 10.767C19.2668 10.767 20.0557 11.095 20.7001 11.751C21.3446 12.4061 21.6668 13.1892 21.6668 14.1003C21.6668 15.0337 21.3446 15.8225 20.7001 16.467C20.0557 17.1114 19.2668 17.4337 18.3335 17.4337ZM9.53346 21.567C8.8668 21.567 8.30013 21.3337 7.83346 20.867C7.3668 20.4003 7.13346 19.8337 7.13346 19.167V9.06699C7.13346 8.40033 7.3668 7.83366 7.83346 7.36699C8.30013 6.90033 8.8668 6.66699 9.53346 6.66699H27.1335C27.8001 6.66699 28.3668 6.90033 28.8335 7.36699C29.3001 7.83366 29.5335 8.40033 29.5335 9.06699V19.167C29.5335 19.8337 29.3001 20.4003 28.8335 20.867C28.3668 21.3337 27.8001 21.567 27.1335 21.567H9.53346ZM11.5335 19.567H25.1335C25.1335 18.9003 25.3668 18.3337 25.8335 17.867C26.3001 17.4003 26.8668 17.167 27.5335 17.167V11.067C26.8668 11.067 26.3001 10.8279 25.8335 10.3497C25.3668 9.87233 25.1335 9.31144 25.1335 8.66699H11.5335C11.5335 9.33366 11.3001 9.90033 10.8335 10.367C10.3668 10.8337 9.80013 11.067 9.13346 11.067V17.167C9.80013 17.167 10.3668 17.4003 10.8335 17.867C11.3001 18.3337 11.5335 18.9003 11.5335 19.567ZM4.8668 26.2337C4.20013 26.2337 3.63346 26.0003 3.1668 25.5337C2.70013 25.067 2.4668 24.5003 2.4668 23.8337V11.6337C2.4668 11.3448 2.56102 11.1057 2.74946 10.9163C2.9388 10.7279 3.17791 10.6337 3.4668 10.6337C3.75569 10.6337 3.9948 10.7279 4.18413 10.9163C4.37257 11.1057 4.4668 11.3448 4.4668 11.6337V23.8337C4.4668 23.9448 4.51124 24.039 4.60013 24.1163C4.68902 24.1945 4.77791 24.2337 4.8668 24.2337H24.5668C24.8557 24.2337 25.0944 24.3337 25.2828 24.5337C25.4721 24.7337 25.5668 24.967 25.5668 25.2337C25.5668 25.5225 25.4721 25.7612 25.2828 25.9497C25.0944 26.139 24.8557 26.2337 24.5668 26.2337H4.8668ZM9.53346 19.567H9.13346V8.66699H9.53346C9.42235 8.66699 9.32813 8.7061 9.2508 8.78433C9.17258 8.86166 9.13346 8.95588 9.13346 9.06699V19.167C9.13346 19.2781 9.17258 19.3723 9.2508 19.4497C9.32813 19.5279 9.42235 19.567 9.53346 19.567Z" fill="#4E62EE"/>
</g>
</svg>
