<svg width="52" height="52" viewBox="0 0 52 52" fill="none" xmlns="http://www.w3.org/2000/svg">
<mask id="mask0_8_463" style="mask-type:alpha" maskUnits="userSpaceOnUse" x="0" y="0" width="52" height="52">
<rect width="52" height="52" fill="#D9D9D9"/>
</mask>
<g mask="url(#mask0_8_463)">
<path d="M45.2292 48.2626L39.975 43.0626C39.2528 43.5681 38.4489 43.9473 37.5635 44.2001C36.6795 44.4528 35.7681 44.5792 34.8292 44.5792C32.1208 44.5792 29.8191 43.6309 27.924 41.7344C26.0274 39.8393 25.0792 37.5376 25.0792 34.8292C25.0792 32.1209 26.0274 29.8184 27.924 27.9219C29.8191 26.0268 32.1208 25.0792 34.8292 25.0792C37.5375 25.0792 39.8399 26.0268 41.7365 27.9219C43.6316 29.8184 44.5792 32.1209 44.5792 34.8292C44.5792 35.7681 44.4528 36.6796 44.2 37.5636C43.9472 38.449 43.5681 39.2709 43.0625 40.0292L48.2625 45.2292C48.6958 45.6626 48.9219 46.1681 48.9407 46.7459C48.958 47.3237 48.75 47.8292 48.3167 48.2626C47.8833 48.6959 47.3684 48.9126 46.7718 48.9126C46.1767 48.9126 45.6625 48.6959 45.2292 48.2626ZM34.8292 40.2459C36.3458 40.2459 37.6278 39.7223 38.675 38.6751C39.7222 37.6278 40.2458 36.3459 40.2458 34.8292C40.2458 33.3126 39.7222 32.0306 38.675 30.9834C37.6278 29.9362 36.3458 29.4126 34.8292 29.4126C33.3125 29.4126 32.0306 29.9362 30.9833 30.9834C29.9361 32.0306 29.4125 33.3126 29.4125 34.8292C29.4125 36.3459 29.9361 37.6278 30.9833 38.6751C32.0306 39.7223 33.3125 40.2459 34.8292 40.2459Z" fill="#4E62EE"/>
<path d="M2.95317 36.6991C3.04272 37.2581 3.32222 37.7001 3.79167 38.0251C4.29722 38.4223 4.86634 38.5573 5.499 38.4302C6.13022 38.3046 6.60834 37.9709 6.93334 37.4292L13.5417 26.7584L18.1458 32.1209C18.6514 32.6987 19.2653 32.9514 19.9875 32.8792C20.7097 32.807 21.2694 32.4639 21.6667 31.8501L28.3292 21.0167L29.5208 22.8042C30.2431 22.5153 30.9739 22.2893 31.7135 22.1261C32.4545 21.9643 33.2403 21.8653 34.0708 21.8292L30.0625 15.8167C29.6292 15.1667 29.0066 14.8417 28.1948 14.8417C27.3816 14.8417 26.7764 15.1848 26.3792 15.8709L19.5 27.0834L14.8958 21.7209C14.3903 21.1792 13.7858 20.9358 13.0823 20.9907C12.3774 21.0442 11.8264 21.3778 11.4292 21.9917L3.25 35.1001C2.96111 35.6056 2.86217 36.1386 2.95317 36.6991Z" fill="#40BE82"/>
<path d="M37.5093 22.2084C38.2503 22.3889 38.9639 22.6237 39.65 22.9126L48.75 8.61255C49.0389 8.107 49.1292 7.574 49.0208 7.01355C48.9125 6.45455 48.6236 6.01255 48.1542 5.68755C47.6486 5.29033 47.0889 5.16394 46.475 5.30839C45.8611 5.45283 45.3917 5.77783 45.0667 6.28339L35.2083 21.8834C36.0028 21.9195 36.7698 22.0278 37.5093 22.2084Z" fill="#40BE82"/>
</g>
</svg>
