<svg width="20" height="20" viewBox="0 0 20 20" fill="none" xmlns="http://www.w3.org/2000/svg">
<path d="M16.5958 6.5572C16.6066 6.70735 16.6066 6.85753 16.6066 7.00769C16.6066 11.5875 13.1208 16.8645 6.74972 16.8645C4.78693 16.8645 2.96359 16.296 1.42982 15.3093C1.70869 15.3415 1.97681 15.3522 2.26641 15.3522C3.88595 15.3522 5.37684 14.8052 6.56738 13.8721C5.04434 13.8399 3.76799 12.8424 3.32823 11.4695C3.54276 11.5017 3.75726 11.5232 3.98252 11.5232C4.29355 11.5232 4.60462 11.4802 4.89419 11.4052C3.30681 11.0834 2.11623 9.68908 2.11623 8.00516V7.96228C2.57741 8.21969 3.11374 8.38057 3.68215 8.402C2.74902 7.7799 2.13769 6.71808 2.13769 5.5168C2.13769 4.87328 2.30927 4.28337 2.6096 3.76854C4.31498 5.87075 6.87842 7.24361 9.75285 7.39379C9.69923 7.13638 9.66704 6.86826 9.66704 6.60012C9.66704 4.69094 11.2115 3.13574 13.1314 3.13574C14.1289 3.13574 15.0298 3.55404 15.6627 4.22975C16.4456 4.0796 17.1964 3.79 17.8614 3.39316C17.604 4.1976 17.057 4.87331 16.3384 5.30231C17.0356 5.22726 17.7113 5.03416 18.3333 4.76605C17.8615 5.45246 17.2715 6.06379 16.5958 6.5572Z" fill="white"/>
</svg>
