<svg width="20" height="20" viewBox="0 0 20 20" fill="none" xmlns="http://www.w3.org/2000/svg">
<mask id="mask0_386_1733" style="mask-type:alpha" maskUnits="userSpaceOnUse" x="0" y="0" width="20" height="20">
<rect width="20" height="20" fill="#D9D9D9"/>
</mask>
<g mask="url(#mask0_386_1733)">
<path d="M9.58333 16.3542C9.16667 16.3542 8.78139 16.25 8.4275 16.0417C8.07306 15.8333 7.79167 15.5556 7.58333 15.2083C7.47222 14.9861 7.46528 14.7744 7.5625 14.5733C7.65972 14.3717 7.84028 14.2708 8.10417 14.2708C8.21528 14.2708 8.32306 14.3022 8.4275 14.365C8.53139 14.4272 8.63194 14.5278 8.72917 14.6667C8.82639 14.8056 8.95139 14.9133 9.10417 14.99C9.25694 15.0661 9.41667 15.1042 9.58333 15.1042C9.875 15.1042 10.1214 15.0033 10.3225 14.8017C10.5242 14.6006 10.625 14.3542 10.625 14.0625C10.625 13.7847 10.5242 13.5417 10.3225 13.3333C10.1214 13.125 9.875 13.0208 9.58333 13.0208H2.5C2.31944 13.0208 2.17028 12.9617 2.0525 12.8433C1.93417 12.7256 1.875 12.5764 1.875 12.3958C1.875 12.2292 1.93417 12.0833 2.0525 11.9583C2.17028 11.8333 2.31944 11.7708 2.5 11.7708H9.58333C10.2222 11.7708 10.7639 11.9967 11.2083 12.4483C11.6528 12.8994 11.875 13.4375 11.875 14.0625C11.875 14.7014 11.6528 15.2431 11.2083 15.6875C10.7639 16.1319 10.2222 16.3542 9.58333 16.3542ZM2.5 8.22917C2.31944 8.22917 2.17028 8.16667 2.0525 8.04167C1.93417 7.91667 1.875 7.77083 1.875 7.60417C1.875 7.42361 1.93417 7.27417 2.0525 7.15583C2.17028 7.03806 2.31944 6.97917 2.5 6.97917H12.9167C13.3333 6.97917 13.6806 6.83667 13.9583 6.55167C14.2361 6.26722 14.375 5.92361 14.375 5.52083C14.375 5.10417 14.2361 4.75694 13.9583 4.47917C13.6806 4.20139 13.3333 4.0625 12.9167 4.0625C12.625 4.0625 12.3644 4.13194 12.135 4.27083C11.9061 4.40972 11.7361 4.59722 11.625 4.83333C11.5417 4.98611 11.4444 5.10417 11.3333 5.1875C11.2222 5.27083 11.1111 5.3125 11 5.3125C10.7778 5.3125 10.6006 5.23278 10.4683 5.07333C10.3367 4.91333 10.3056 4.73611 10.375 4.54167C10.5694 4.01389 10.8958 3.59389 11.3542 3.28167C11.8125 2.96889 12.3333 2.8125 12.9167 2.8125C13.6806 2.8125 14.3228 3.07278 14.8433 3.59333C15.3644 4.11444 15.625 4.75694 15.625 5.52083C15.625 6.27083 15.3644 6.90972 14.8433 7.4375C14.3228 7.96528 13.6806 8.22917 12.9167 8.22917H2.5ZM16.5208 14.5833C16.2986 14.6667 16.0936 14.6528 15.9058 14.5417C15.7186 14.4306 15.625 14.25 15.625 14C15.625 13.875 15.6633 13.7603 15.74 13.6558C15.8161 13.5519 15.9306 13.4583 16.0833 13.375C16.3333 13.2639 16.5278 13.0939 16.6667 12.865C16.8056 12.6356 16.875 12.375 16.875 12.0833C16.875 11.6667 16.7361 11.3194 16.4583 11.0417C16.1806 10.7639 15.8333 10.625 15.4167 10.625H2.5C2.31944 10.625 2.17028 10.5658 2.0525 10.4475C1.93417 10.3297 1.875 10.1806 1.875 10C1.875 9.81944 1.93417 9.67 2.0525 9.55167C2.17028 9.43389 2.31944 9.375 2.5 9.375H15.4167C16.1806 9.375 16.8228 9.63556 17.3433 10.1567C17.8644 10.6772 18.125 11.3194 18.125 12.0833C18.125 12.6389 17.9792 13.1389 17.6875 13.5833C17.3958 14.0278 17.0069 14.3611 16.5208 14.5833Z" fill="#4E62EE"/>
</g>
</svg>
