<svg width="24" height="24" viewBox="0 0 24 24" fill="none" xmlns="http://www.w3.org/2000/svg">
<mask id="mask0_2_2418" style="mask-type:alpha" maskUnits="userSpaceOnUse" x="0" y="0" width="24" height="24">
<rect width="24" height="24" fill="#D9D9D9"/>
</mask>
<g mask="url(#mask0_2_2418)">
<path d="M12 14.6498C11.8834 14.6498 11.771 14.6332 11.663 14.5998C11.5544 14.5665 11.4584 14.4998 11.375 14.3998L6.85002 9.89984C6.71669 9.74984 6.65002 9.57484 6.65002 9.37484C6.65002 9.17484 6.72502 8.99984 6.87502 8.84984C7.02502 8.71651 7.20002 8.64984 7.40002 8.64984C7.60002 8.64984 7.77502 8.71651 7.92502 8.84984L12 12.9248L16.1 8.84984C16.2334 8.69984 16.4 8.62884 16.6 8.63684C16.8 8.6455 16.975 8.71651 17.125 8.84984C17.275 8.99984 17.35 9.17884 17.35 9.38684C17.35 9.5955 17.275 9.7665 17.125 9.89984L12.625 14.3998C12.5417 14.4998 12.446 14.5665 12.338 14.5998C12.2294 14.6332 12.1167 14.6498 12 14.6498Z" fill="white"/>
</g>
</svg>
