<svg width="32" height="32" viewBox="0 0 32 32" fill="none" xmlns="http://www.w3.org/2000/svg">
<path d="M15.9996 0.210041C7.23893 0.210041 0.104507 7.34448 0.104507 16.1051C0.104507 24.8658 7.23893 32.0002 15.9996 32.0002C24.7602 32.0002 31.8947 24.8658 31.8947 16.1051C31.8947 7.29202 24.7602 0.210041 15.9996 0.210041ZM6.45204 8.23628C6.97663 7.65923 7.81598 7.65922 8.39303 8.13136C10.6488 10.1773 11.9602 13.115 11.9602 16.21C11.9602 19.1477 10.8061 21.8756 8.76025 23.9215C8.49795 24.1838 8.13073 24.3412 7.81597 24.3412C7.44876 24.3412 7.13401 24.1838 6.87172 23.9215C6.34713 23.3969 6.34713 22.5051 6.87172 21.9805C8.39303 20.4592 9.28484 18.3609 9.28484 16.21C9.28484 13.9018 8.28811 11.6986 6.60942 10.1773C5.97991 9.65266 5.9799 8.81333 6.45204 8.23628ZM14.0586 16.0527C14.0586 15.0035 14.8979 14.1117 15.9996 14.1117C17.1012 14.1117 17.9406 14.951 17.9406 16.0527C17.9406 17.1019 17.1012 17.9936 15.9996 17.9936C14.8979 17.9936 14.0586 17.1543 14.0586 16.0527ZM25.1799 21.9805C25.7045 22.5051 25.7045 23.3969 25.1799 23.9215C24.9176 24.1838 24.5504 24.3412 24.2357 24.3412C23.8684 24.3412 23.5537 24.1838 23.2914 23.9215C21.2455 21.8756 20.0914 19.0953 20.0914 16.21C20.0914 13.1674 21.4029 10.2297 23.6586 8.13136C24.2357 7.60677 25.075 7.65923 25.5996 8.23628C26.1242 8.81333 26.0717 9.65266 25.4947 10.1773C23.816 11.6986 22.8193 13.9018 22.8193 16.21C22.7668 18.4133 23.6061 20.4592 25.1799 21.9805Z" fill="#EC5942"/>
</svg>
