<svg width="32" height="32" viewBox="0 0 32 32" fill="none" xmlns="http://www.w3.org/2000/svg">
<mask id="mask0_213_1652" style="mask-type:alpha" maskUnits="userSpaceOnUse" x="0" y="0" width="32" height="32">
<rect width="32" height="32" fill="#D9D9D9"/>
</mask>
<g mask="url(#mask0_213_1652)">
<path d="M15.3333 26.1667C14.6667 26.1667 14.0502 26 13.484 25.6667C12.9169 25.3333 12.4667 24.8889 12.1333 24.3333C11.9556 23.9778 11.9444 23.6391 12.1 23.3173C12.2556 22.9947 12.5444 22.8333 12.9667 22.8333C13.1444 22.8333 13.3169 22.8836 13.484 22.984C13.6502 23.0836 13.8111 23.2444 13.9667 23.4667C14.1222 23.6889 14.3222 23.8613 14.5667 23.984C14.8111 24.1058 15.0667 24.1667 15.3333 24.1667C15.8 24.1667 16.1942 24.0053 16.516 23.6827C16.8387 23.3609 17 22.9667 17 22.5C17 22.0556 16.8387 21.6667 16.516 21.3333C16.1942 21 15.8 20.8333 15.3333 20.8333H4C3.71111 20.8333 3.47244 20.7387 3.284 20.5493C3.09467 20.3609 3 20.1222 3 19.8333C3 19.5667 3.09467 19.3333 3.284 19.1333C3.47244 18.9333 3.71111 18.8333 4 18.8333H15.3333C16.3556 18.8333 17.2222 19.1947 17.9333 19.9173C18.6444 20.6391 19 21.5 19 22.5C19 23.5222 18.6444 24.3889 17.9333 25.1C17.2222 25.8111 16.3556 26.1667 15.3333 26.1667ZM4 13.1667C3.71111 13.1667 3.47244 13.0667 3.284 12.8667C3.09467 12.6667 3 12.4333 3 12.1667C3 11.8778 3.09467 11.6387 3.284 11.4493C3.47244 11.2609 3.71111 11.1667 4 11.1667H20.6667C21.3333 11.1667 21.8889 10.9387 22.3333 10.4827C22.7778 10.0276 23 9.47778 23 8.83333C23 8.16667 22.7778 7.61111 22.3333 7.16667C21.8889 6.72222 21.3333 6.5 20.6667 6.5C20.2 6.5 19.7831 6.61111 19.416 6.83333C19.0498 7.05556 18.7778 7.35556 18.6 7.73333C18.4667 7.97778 18.3111 8.16667 18.1333 8.3C17.9556 8.43333 17.7778 8.5 17.6 8.5C17.2444 8.5 16.9609 8.37244 16.7493 8.11733C16.5387 7.86133 16.4889 7.57778 16.6 7.26667C16.9111 6.42222 17.4333 5.75022 18.1667 5.25067C18.9 4.75022 19.7333 4.5 20.6667 4.5C21.8889 4.5 22.9164 4.91644 23.7493 5.74933C24.5831 6.58311 25 7.61111 25 8.83333C25 10.0333 24.5831 11.0556 23.7493 11.9C22.9164 12.7444 21.8889 13.1667 20.6667 13.1667H4ZM26.4333 23.3333C26.0778 23.4667 25.7498 23.4444 25.4493 23.2667C25.1498 23.0889 25 22.8 25 22.4C25 22.2 25.0613 22.0164 25.184 21.8493C25.3058 21.6831 25.4889 21.5333 25.7333 21.4C26.1333 21.2222 26.4444 20.9502 26.6667 20.584C26.8889 20.2169 27 19.8 27 19.3333C27 18.6667 26.7778 18.1111 26.3333 17.6667C25.8889 17.2222 25.3333 17 24.6667 17H4C3.71111 17 3.47244 16.9053 3.284 16.716C3.09467 16.5276 3 16.2889 3 16C3 15.7111 3.09467 15.472 3.284 15.2827C3.47244 15.0942 3.71111 15 4 15H24.6667C25.8889 15 26.9164 15.4169 27.7493 16.2507C28.5831 17.0836 29 18.1111 29 19.3333C29 20.2222 28.7667 21.0222 28.3 21.7333C27.8333 22.4444 27.2111 22.9778 26.4333 23.3333Z" fill="white"/>
</g>
</svg>
