<svg width="20" height="20" viewBox="0 0 20 20" fill="none" xmlns="http://www.w3.org/2000/svg">
<mask id="mask0_362_1456" style="mask-type:alpha" maskUnits="userSpaceOnUse" x="0" y="0" width="20" height="20">
<rect width="20" height="20" fill="#D9D9D9"/>
</mask>
<g mask="url(#mask0_362_1456)">
<path d="M10 14.6872C10.2361 14.6872 10.4342 14.6038 10.5942 14.4372C10.7536 14.2705 10.8333 14.0691 10.8333 13.833C10.8333 13.5969 10.7536 13.3955 10.5942 13.2288C10.4342 13.0622 10.2361 12.9788 10 12.9788C9.75 12.9788 9.54528 13.0622 9.38584 13.2288C9.22584 13.3955 9.14584 13.5969 9.14584 13.833C9.14584 14.0691 9.22584 14.2705 9.38584 14.4372C9.54528 14.6038 9.75 14.6872 10 14.6872ZM10.0625 6.43717C10.4931 6.43717 10.8367 6.55162 11.0933 6.78051C11.3506 7.00995 11.4792 7.31912 11.4792 7.70801C11.4792 7.95801 11.4061 8.2044 11.26 8.44717C11.1144 8.69051 10.8958 8.94412 10.6042 9.20801C10.2014 9.55523 9.90972 9.88495 9.72917 10.1972C9.54861 10.51 9.45139 10.833 9.4375 11.1663C9.42361 11.3052 9.47222 11.4266 9.58334 11.5305C9.69445 11.635 9.82639 11.6872 9.97917 11.6872C10.1319 11.6872 10.2675 11.635 10.3858 11.5305C10.5036 11.4266 10.5764 11.2983 10.6042 11.1455C10.6458 10.9094 10.7361 10.6905 10.875 10.4888C11.0139 10.2877 11.2361 10.0344 11.5417 9.72884C11.9722 9.32606 12.2708 8.96495 12.4375 8.64551C12.6042 8.32606 12.6875 7.97884 12.6875 7.60384C12.6875 6.93717 12.4444 6.3919 11.9583 5.96801C11.4722 5.54467 10.8472 5.33301 10.0833 5.33301C9.56945 5.33301 9.09722 5.44051 8.66667 5.65551C8.23611 5.87106 7.89584 6.19412 7.64584 6.62467C7.57639 6.76356 7.55223 6.89912 7.57334 7.03134C7.59389 7.16301 7.67361 7.27051 7.8125 7.35384C7.9375 7.43717 8.08695 7.46495 8.26084 7.43717C8.43417 7.4094 8.57639 7.31912 8.6875 7.16634C8.85417 6.94412 9.04528 6.7669 9.26084 6.63467C9.47584 6.50301 9.74306 6.43717 10.0625 6.43717ZM10 17.9163C8.90278 17.9163 7.875 17.708 6.91667 17.2913C5.95834 16.8747 5.12139 16.3122 4.40584 15.6038C3.69084 14.8955 3.125 14.0586 2.70834 13.093C2.29167 12.128 2.08334 11.0969 2.08334 9.99967C2.08334 8.90245 2.29167 7.87106 2.70834 6.90551C3.125 5.94051 3.69084 5.10384 4.40584 4.39551C5.12139 3.68717 5.95834 3.12467 6.91667 2.70801C7.875 2.29134 8.90278 2.08301 10 2.08301C11.1111 2.08301 12.1458 2.29134 13.1042 2.70801C14.0625 3.12467 14.8994 3.68717 15.615 4.39551C16.33 5.10384 16.8925 5.94051 17.3025 6.90551C17.7119 7.87106 17.9167 8.90245 17.9167 9.99967C17.9167 11.0969 17.7119 12.128 17.3025 13.093C16.8925 14.0586 16.33 14.8955 15.615 15.6038C14.8994 16.3122 14.0625 16.8747 13.1042 17.2913C12.1458 17.708 11.1111 17.9163 10 17.9163ZM10 16.6663C11.8611 16.6663 13.4375 16.0172 14.7292 14.7188C16.0208 13.42 16.6667 11.8469 16.6667 9.99967C16.6667 8.15245 16.0208 6.5794 14.7292 5.28051C13.4375 3.98217 11.8611 3.33301 10 3.33301C8.16667 3.33301 6.59722 3.98217 5.29167 5.28051C3.98611 6.5794 3.33334 8.15245 3.33334 9.99967C3.33334 11.8469 3.98611 13.42 5.29167 14.7188C6.59722 16.0172 8.16667 16.6663 10 16.6663Z" fill="white"/>
</g>
</svg>
