<svg width="20" height="20" viewBox="0 0 20 20" fill="none" xmlns="http://www.w3.org/2000/svg">
<mask id="mask0_8_684" style="mask-type:alpha" maskUnits="userSpaceOnUse" x="0" y="0" width="20" height="20">
<rect width="20" height="20" fill="#D9D9D9"/>
</mask>
<g mask="url(#mask0_8_684)">
<path d="M10 17.5001C8.26389 17.5001 6.78833 16.8992 5.57333 15.6976C4.35778 14.4965 3.75 13.0417 3.75 11.3334C3.75 10.4723 3.91333 9.67703 4.24 8.94758C4.56611 8.21869 5.01389 7.56953 5.58333 7.00008L10 2.66675L14.4167 7.00008C14.9861 7.56953 15.4342 8.2223 15.7608 8.95842C16.0869 9.69453 16.25 10.4862 16.25 11.3334C16.25 13.0417 15.6422 14.4965 14.4267 15.6976C13.2117 16.8992 11.7361 17.5001 10 17.5001ZM10 16.2501C11.3889 16.2501 12.5694 15.7673 13.5417 14.8017C14.5139 13.8367 15 12.6806 15 11.3334C15 10.6667 14.8783 10.0451 14.635 9.46842C14.3922 8.8923 14.0278 8.37508 13.5417 7.91675L10 4.41675L6.45833 7.91675C5.97222 8.37508 5.60778 8.8923 5.365 9.46842C5.12167 10.0451 5 10.6667 5 11.3334C5 12.6806 5.48611 13.8367 6.45833 14.8017C7.43056 15.7673 8.61111 16.2501 10 16.2501Z" fill="white"/>
</g>
</svg>
