<svg width="51" height="51" viewBox="0 0 51 51" fill="none" xmlns="http://www.w3.org/2000/svg">
<mask id="mask0_8_598" style="mask-type:alpha" maskUnits="userSpaceOnUse" x="0" y="0" width="51" height="51">
<rect width="51" height="51" fill="#D9D9D9"/>
</mask>
<g mask="url(#mask0_8_598)">
<path d="M21.25 34H23.375C23.375 34.6021 23.579 35.1064 23.987 35.513C24.3936 35.921 24.8979 36.125 25.5 36.125C26.1021 36.125 26.6071 35.921 27.0151 35.513C27.4217 35.1064 27.625 34.6021 27.625 34H29.75C30.3521 34 30.8571 33.796 31.2651 33.388C31.6717 32.9814 31.875 32.4771 31.875 31.875V25.5C31.875 24.8979 31.6717 24.3929 31.2651 23.9849C30.8571 23.5783 30.3521 23.375 29.75 23.375H23.375V21.25H29.75C30.3521 21.25 30.8571 21.046 31.2651 20.638C31.6717 20.2314 31.875 19.7271 31.875 19.125C31.875 18.5229 31.6717 18.0179 31.2651 17.6099C30.8571 17.2033 30.3521 17 29.75 17H27.625C27.625 16.3979 27.4217 15.8929 27.0151 15.4849C26.6071 15.0783 26.1021 14.875 25.5 14.875C24.8979 14.875 24.3936 15.0783 23.987 15.4849C23.579 15.8929 23.375 16.3979 23.375 17H21.25C20.6479 17 20.1436 17.2033 19.737 17.6099C19.329 18.0179 19.125 18.5229 19.125 19.125V25.5C19.125 26.1021 19.329 26.6064 19.737 27.013C20.1436 27.421 20.6479 27.625 21.25 27.625H27.625V29.75H21.25C20.6479 29.75 20.1436 29.9533 19.737 30.3599C19.329 30.7679 19.125 31.2729 19.125 31.875C19.125 32.4771 19.329 32.9814 19.737 33.388C20.1436 33.796 20.6479 34 21.25 34ZM8.5 42.5C7.33125 42.5 6.33108 42.0842 5.4995 41.2526C4.6665 40.4196 4.25 39.4188 4.25 38.25L4.25 12.75C4.25 11.5812 4.6665 10.5811 5.4995 9.7495C6.33108 8.9165 7.33125 8.5 8.5 8.5L42.5 8.5C43.6688 8.5 44.6696 8.9165 45.5026 9.7495C46.3342 10.5811 46.75 11.5812 46.75 12.75V38.25C46.75 39.4188 46.3342 40.4196 45.5026 41.2526C44.6696 42.0842 43.6688 42.5 42.5 42.5H8.5Z" fill="#4E62EE"/>
</g>
</svg>
