<svg width="20" height="20" viewBox="0 0 20 20" fill="none" xmlns="http://www.w3.org/2000/svg">
<mask id="mask0_386_584" style="mask-type:alpha" maskUnits="userSpaceOnUse" x="0" y="0" width="20" height="20">
<rect width="20" height="20" fill="#D9D9D9"/>
</mask>
<g mask="url(#mask0_386_584)">
<path d="M10 4.33301C9.81949 4.33301 9.67032 4.27384 9.55254 4.15551C9.43421 4.03773 9.37504 3.88856 9.37504 3.70801V1.89551C9.37504 1.71495 9.43421 1.56551 9.55254 1.44717C9.67032 1.3294 9.81949 1.27051 10 1.27051C10.1806 1.27051 10.33 1.3294 10.4484 1.44717C10.5662 1.56551 10.625 1.71495 10.625 1.89551V3.70801C10.625 3.88856 10.5662 4.03773 10.4484 4.15551C10.33 4.27384 10.1806 4.33301 10 4.33301ZM14 5.99967C13.8889 5.88856 13.8334 5.74634 13.8334 5.57301C13.8334 5.39912 13.8889 5.24967 14 5.12467L15.2709 3.83301C15.3959 3.69412 15.5453 3.62467 15.7192 3.62467C15.8925 3.62467 16.0417 3.69412 16.1667 3.83301C16.2917 3.94412 16.3542 4.08634 16.3542 4.25967C16.3542 4.43356 16.2917 4.58301 16.1667 4.70801L14.875 5.99967C14.75 6.12467 14.6042 6.18717 14.4375 6.18717C14.2709 6.18717 14.125 6.12467 14 5.99967ZM16.2917 10.6247C16.1112 10.6247 15.962 10.5655 15.8442 10.4472C15.7259 10.3294 15.6667 10.1802 15.6667 9.99967C15.6667 9.81912 15.7259 9.66967 15.8442 9.55134C15.962 9.43356 16.1112 9.37467 16.2917 9.37467H18.1042C18.2848 9.37467 18.4342 9.43356 18.5525 9.55134C18.6703 9.66967 18.7292 9.81912 18.7292 9.99967C18.7292 10.1802 18.6703 10.3294 18.5525 10.4472C18.4342 10.5655 18.2848 10.6247 18.1042 10.6247H16.2917ZM10 18.7288C9.81949 18.7288 9.67032 18.67 9.55254 18.5522C9.43421 18.4338 9.37504 18.2844 9.37504 18.1038V16.2913C9.37504 16.1108 9.43421 15.9616 9.55254 15.8438C9.67032 15.7255 9.81949 15.6663 10 15.6663C10.1806 15.6663 10.33 15.7255 10.4484 15.8438C10.5662 15.9616 10.625 16.1108 10.625 16.2913V18.1038C10.625 18.2844 10.5662 18.4338 10.4484 18.5522C10.33 18.67 10.1806 18.7288 10 18.7288ZM5.12504 5.99967L3.83337 4.72884C3.69448 4.60384 3.62504 4.45106 3.62504 4.27051C3.62504 4.08995 3.69448 3.94412 3.83337 3.83301C3.94448 3.70801 4.09032 3.64551 4.27087 3.64551C4.45143 3.64551 4.59726 3.70801 4.70837 3.83301L6.02087 5.12467C6.13198 5.24967 6.18754 5.39912 6.18754 5.57301C6.18754 5.74634 6.13198 5.88856 6.02087 5.99967C5.89587 6.11079 5.75004 6.16634 5.58337 6.16634C5.41671 6.16634 5.26393 6.11079 5.12504 5.99967ZM15.2917 16.1663L14 14.8747C13.8889 14.7497 13.8334 14.6002 13.8334 14.4263C13.8334 14.253 13.8889 14.1108 14 13.9997C14.1112 13.8886 14.2534 13.833 14.4267 13.833C14.6006 13.833 14.75 13.8886 14.875 13.9997L16.1667 15.2913C16.2917 15.4025 16.3542 15.545 16.3542 15.7188C16.3542 15.8922 16.2917 16.0413 16.1667 16.1663C16.0417 16.3052 15.8925 16.3747 15.7192 16.3747C15.5453 16.3747 15.4028 16.3052 15.2917 16.1663ZM1.89587 10.6247C1.71532 10.6247 1.56615 10.5655 1.44837 10.4472C1.33004 10.3294 1.27087 10.1802 1.27087 9.99967C1.27087 9.81912 1.33004 9.66967 1.44837 9.55134C1.56615 9.43356 1.71532 9.37467 1.89587 9.37467H3.70837C3.88893 9.37467 4.03837 9.43356 4.15671 9.55134C4.27448 9.66967 4.33337 9.81912 4.33337 9.99967C4.33337 10.1802 4.27448 10.3294 4.15671 10.4472C4.03837 10.5655 3.88893 10.6247 3.70837 10.6247H1.89587ZM3.83337 16.1663C3.72226 16.0552 3.66337 15.9127 3.65671 15.7388C3.64949 15.5655 3.70837 15.4163 3.83337 15.2913L5.12504 13.9997C5.23615 13.8886 5.37504 13.833 5.54171 13.833C5.70837 13.833 5.86115 13.8886 6.00004 13.9997C6.12504 14.1386 6.18754 14.2913 6.18754 14.458C6.18754 14.6247 6.12504 14.7705 6.00004 14.8955L4.72921 16.1663C4.59032 16.3052 4.43421 16.3747 4.26087 16.3747C4.08698 16.3747 3.94448 16.3052 3.83337 16.1663ZM10 14.583C8.72226 14.583 7.63893 14.1386 6.75004 13.2497C5.86115 12.3608 5.41671 11.2775 5.41671 9.99967C5.41671 8.7219 5.86115 7.63856 6.75004 6.74967C7.63893 5.86079 8.72226 5.41634 10 5.41634C11.2778 5.41634 12.3612 5.86079 13.25 6.74967C14.1389 7.63856 14.5834 8.7219 14.5834 9.99967C14.5834 11.2775 14.1389 12.3608 13.25 13.2497C12.3612 14.1386 11.2778 14.583 10 14.583ZM10 13.333C10.9167 13.333 11.7014 13.0066 12.3542 12.3538C13.007 11.7011 13.3334 10.9163 13.3334 9.99967C13.3334 9.08301 13.007 8.29829 12.3542 7.64551C11.7014 6.99273 10.9167 6.66634 10 6.66634C9.08337 6.66634 8.29865 6.99273 7.64587 7.64551C6.9931 8.29829 6.66671 9.08301 6.66671 9.99967C6.66671 10.9163 6.9931 11.7011 7.64587 12.3538C8.29865 13.0066 9.08337 13.333 10 13.333Z" fill="#4E62EE"/>
</g>
</svg>
