<svg width="20" height="20" viewBox="0 0 20 20" fill="none" xmlns="http://www.w3.org/2000/svg">
<mask id="mask0_386_576" style="mask-type:alpha" maskUnits="userSpaceOnUse" x="0" y="0" width="20" height="20">
<rect width="20" height="20" fill="#D9D9D9"/>
</mask>
<g mask="url(#mask0_386_576)">
<path d="M10 17.5003C8.26389 17.5003 6.78833 16.8995 5.57333 15.6978C4.35778 14.4967 3.75 13.042 3.75 11.3337C3.75 10.4725 3.91333 9.67727 4.24 8.94783C4.56611 8.21894 5.01389 7.56977 5.58333 7.00033L10 2.66699L14.4167 7.00033C14.9861 7.56977 15.4342 8.22255 15.7608 8.95866C16.0869 9.69477 16.25 10.4864 16.25 11.3337C16.25 13.042 15.6422 14.4967 14.4267 15.6978C13.2117 16.8995 11.7361 17.5003 10 17.5003ZM10 16.2503C11.3889 16.2503 12.5694 15.7675 13.5417 14.802C14.5139 13.837 15 12.6809 15 11.3337C15 10.667 14.8783 10.0453 14.635 9.46866C14.3922 8.89255 14.0278 8.37533 13.5417 7.91699L10 4.41699L6.45833 7.91699C5.97222 8.37533 5.60778 8.89255 5.365 9.46866C5.12167 10.0453 5 10.667 5 11.3337C5 12.6809 5.48611 13.837 6.45833 14.802C7.43056 15.7675 8.61111 16.2503 10 16.2503Z" fill="#4E62EE"/>
</g>
</svg>
