<svg width="20" height="20" viewBox="0 0 20 20" fill="none" xmlns="http://www.w3.org/2000/svg">
<mask id="mask0_386_596" style="mask-type:alpha" maskUnits="userSpaceOnUse" x="0" y="0" width="20" height="20">
<rect width="20" height="20" fill="#D9D9D9"/>
</mask>
<g mask="url(#mask0_386_596)">
<path d="M10 17.9171C8.25 17.9171 6.77083 17.3129 5.5625 16.1046C4.35417 14.8963 3.75 13.4171 3.75 11.6671C3.75 10.2643 4.15639 8.89626 4.96917 7.56293C5.78139 6.22959 6.89583 5.05598 8.3125 4.04209C8.57639 3.84765 8.85778 3.83015 9.15667 3.98959C9.455 4.14959 9.60417 4.39626 9.60417 4.72959V5.41709C9.60417 5.93098 9.80889 6.37904 10.2183 6.76126C10.6283 7.14293 11.1181 7.33376 11.6875 7.33376C11.9375 7.33376 12.1772 7.28515 12.4067 7.18793C12.6356 7.0907 12.8472 6.95181 13.0417 6.77126C13.1528 6.66015 13.2847 6.59765 13.4375 6.58376C13.5903 6.56987 13.7292 6.61154 13.8542 6.70876C14.6042 7.29209 15.1911 8.02126 15.615 8.89626C16.0383 9.77126 16.25 10.6949 16.25 11.6671C16.25 13.4171 15.6458 14.8963 14.4375 16.1046C13.2292 17.3129 11.75 17.9171 10 17.9171ZM5 11.6671C5 12.5004 5.20139 13.2815 5.60417 14.0104C6.00694 14.7399 6.55556 15.3268 7.25 15.7713C7.19444 15.6463 7.15278 15.5246 7.125 15.4063C7.09722 15.2885 7.08333 15.1671 7.08333 15.0421C7.08333 14.6532 7.15611 14.2888 7.30167 13.9488C7.44778 13.6082 7.65972 13.299 7.9375 13.0213L10 11.0004L12.0625 13.0213C12.3403 13.299 12.5522 13.6082 12.6983 13.9488C12.8439 14.2888 12.9167 14.6532 12.9167 15.0421C12.9167 15.1671 12.9028 15.2885 12.875 15.4063C12.8472 15.5246 12.8056 15.6463 12.75 15.7713C13.4444 15.3268 13.9931 14.7399 14.3958 14.0104C14.7986 13.2815 15 12.5004 15 11.6671C15 10.9726 14.8717 10.3163 14.615 9.69793C14.3578 9.08015 13.9861 8.5282 13.5 8.04209C13.2222 8.22265 12.9306 8.35793 12.625 8.44793C12.3194 8.53848 12.0069 8.58376 11.6875 8.58376C10.8264 8.58376 10.08 8.29904 9.44833 7.72959C8.81611 7.16015 8.45139 6.45181 8.35417 5.60459C7.27083 6.52126 6.44111 7.50043 5.865 8.54209C5.28833 9.58376 5 10.6254 5 11.6671ZM10 12.7504L8.8125 13.9171C8.65972 14.0699 8.54167 14.2435 8.45833 14.4379C8.375 14.6324 8.33333 14.8338 8.33333 15.0421C8.33333 15.4865 8.49667 15.8685 8.82333 16.1879C9.14944 16.5074 9.54167 16.6671 10 16.6671C10.4583 16.6671 10.8508 16.5074 11.1775 16.1879C11.5036 15.8685 11.6667 15.4865 11.6667 15.0421C11.6667 14.8199 11.625 14.6149 11.5417 14.4271C11.4583 14.2399 11.3403 14.0699 11.1875 13.9171L10 12.7504Z" fill="#4E62EE"/>
</g>
</svg>
