<svg width="20" height="20" viewBox="0 0 20 20" fill="none" xmlns="http://www.w3.org/2000/svg">
<mask id="mask0_386_865" style="mask-type:alpha" maskUnits="userSpaceOnUse" x="0" y="0" width="20" height="20">
<rect width="20" height="20" fill="#D9D9D9"/>
</mask>
<g mask="url(#mask0_386_865)">
<path d="M15.8541 16.7083L11.0416 11.9167C10.625 12.2639 10.1458 12.5347 9.60415 12.7292C9.06248 12.9236 8.50692 13.0208 7.93748 13.0208C6.50692 13.0208 5.29859 12.5278 4.31248 11.5417C3.32637 10.5556 2.83331 9.34722 2.83331 7.91667C2.83331 6.5 3.32637 5.295 4.31248 4.30167C5.29859 3.30889 6.50692 2.8125 7.93748 2.8125C9.35415 2.8125 10.5555 3.30556 11.5416 4.29167C12.5278 5.27778 13.0208 6.48611 13.0208 7.91667C13.0208 8.51389 12.9236 9.08333 12.7291 9.625C12.5347 10.1667 12.2708 10.6389 11.9375 11.0417L16.75 15.8542C16.8611 15.9653 16.9166 16.1042 16.9166 16.2708C16.9166 16.4375 16.8541 16.5833 16.7291 16.7083C16.6041 16.8333 16.455 16.8958 16.2816 16.8958C16.1078 16.8958 15.9653 16.8333 15.8541 16.7083ZM7.93748 11.7708C9.00692 11.7708 9.91331 11.3958 10.6566 10.6458C11.3994 9.89583 11.7708 8.98611 11.7708 7.91667C11.7708 6.84722 11.3994 5.9375 10.6566 5.1875C9.91331 4.4375 9.00692 4.0625 7.93748 4.0625C6.85415 4.0625 5.94109 4.4375 5.19831 5.1875C4.45498 5.9375 4.08331 6.84722 4.08331 7.91667C4.08331 8.98611 4.45498 9.89583 5.19831 10.6458C5.94109 11.3958 6.85415 11.7708 7.93748 11.7708Z" fill="#4E62EE"/>
</g>
</svg>
