<svg width="20" height="20" viewBox="0 0 20 20" fill="none" xmlns="http://www.w3.org/2000/svg">
<mask id="mask0_386_1742" style="mask-type:alpha" maskUnits="userSpaceOnUse" x="0" y="0" width="20" height="20">
<rect width="20" height="20" fill="#D9D9D9"/>
</mask>
<g mask="url(#mask0_386_1742)">
<path d="M2.35415 14.3545C2.22915 14.2295 2.16999 14.0837 2.17665 13.917C2.18388 13.7503 2.24304 13.6045 2.35415 13.4795L7.27082 8.52116C7.34026 8.45171 7.41999 8.39949 7.50999 8.36449C7.60054 8.33005 7.69443 8.31283 7.79165 8.31283C7.88888 8.31283 7.98276 8.33005 8.07332 8.36449C8.16332 8.39949 8.24304 8.45171 8.31249 8.52116L11.125 11.3337L15.9792 6.54199H14.125C13.9444 6.54199 13.7953 6.48283 13.6775 6.36449C13.5592 6.24671 13.5 6.09755 13.5 5.91699C13.5 5.73644 13.5592 5.58699 13.6775 5.46866C13.7953 5.35088 13.9444 5.29199 14.125 5.29199H17.3333C17.5417 5.29199 17.7189 5.36477 17.865 5.51033C18.0105 5.65644 18.0833 5.83366 18.0833 6.04199V9.25033C18.0833 9.43088 18.0244 9.58005 17.9067 9.69783C17.7883 9.81616 17.6389 9.87533 17.4583 9.87533C17.2778 9.87533 17.1286 9.81616 17.0108 9.69783C16.8925 9.58005 16.8333 9.43088 16.8333 9.25033V7.41699L11.6458 12.6045C11.5764 12.6739 11.4967 12.7259 11.4067 12.7603C11.3161 12.7953 11.2222 12.8128 11.125 12.8128C11.0278 12.8128 10.9342 12.7953 10.8442 12.7603C10.7536 12.7259 10.6736 12.6739 10.6042 12.6045L7.79165 9.79199L3.20832 14.3753C3.09721 14.4864 2.95832 14.542 2.79165 14.542C2.62499 14.542 2.47915 14.4795 2.35415 14.3545Z" fill="#4E62EE"/>
</g>
</svg>
