<svg width="20" height="20" viewBox="0 0 20 20" fill="none" xmlns="http://www.w3.org/2000/svg">
<mask id="mask0_323_1330" style="mask-type:alpha" maskUnits="userSpaceOnUse" x="0" y="0" width="20" height="20">
<rect width="20" height="20" fill="#D9D9D9"/>
</mask>
<g mask="url(#mask0_323_1330)">
<path d="M7.95828 14.3957C7.86106 14.3957 7.76745 14.3782 7.67745 14.3432C7.58689 14.3087 7.50689 14.2568 7.43745 14.1873L3.95828 10.7082C3.83328 10.5832 3.77411 10.4337 3.78078 10.2598C3.788 10.0865 3.84717 9.93734 3.95828 9.81234C4.08328 9.68734 4.23272 9.62484 4.40661 9.62484C4.57995 9.62484 4.72217 9.68734 4.83328 9.81234L7.95828 12.9373L15.1666 5.729C15.2777 5.604 15.4236 5.5415 15.6041 5.5415C15.7847 5.5415 15.9305 5.604 16.0416 5.729C16.1666 5.854 16.2291 6.00317 16.2291 6.1765C16.2291 6.35039 16.1666 6.49984 16.0416 6.62484L8.47911 14.1873C8.40967 14.2568 8.32995 14.3087 8.23995 14.3432C8.14939 14.3782 8.0555 14.3957 7.95828 14.3957Z" fill="#0B0D13"/>
</g>
</svg>
