<svg width="20" height="20" viewBox="0 0 20 20" fill="none" xmlns="http://www.w3.org/2000/svg">
<mask id="mask0_8_843" style="mask-type:alpha" maskUnits="userSpaceOnUse" x="0" y="0" width="20" height="20">
<rect width="20" height="20" fill="#D9D9D9"/>
</mask>
<g mask="url(#mask0_8_843)">
<path d="M10 4.33325C9.81949 4.33325 9.67032 4.27409 9.55254 4.15575C9.43421 4.03797 9.37504 3.88881 9.37504 3.70825V1.89575C9.37504 1.7152 9.43421 1.56575 9.55254 1.44742C9.67032 1.32964 9.81949 1.27075 10 1.27075C10.1806 1.27075 10.33 1.32964 10.4484 1.44742C10.5662 1.56575 10.625 1.7152 10.625 1.89575V3.70825C10.625 3.88881 10.5662 4.03797 10.4484 4.15575C10.33 4.27409 10.1806 4.33325 10 4.33325ZM14 5.99992C13.8889 5.88881 13.8334 5.74659 13.8334 5.57325C13.8334 5.39936 13.8889 5.24992 14 5.12492L15.2709 3.83325C15.3959 3.69436 15.5453 3.62492 15.7192 3.62492C15.8925 3.62492 16.0417 3.69436 16.1667 3.83325C16.2917 3.94436 16.3542 4.08659 16.3542 4.25992C16.3542 4.43381 16.2917 4.58325 16.1667 4.70825L14.875 5.99992C14.75 6.12492 14.6042 6.18742 14.4375 6.18742C14.2709 6.18742 14.125 6.12492 14 5.99992ZM16.2917 10.6249C16.1112 10.6249 15.962 10.5658 15.8442 10.4474C15.7259 10.3296 15.6667 10.1805 15.6667 9.99992C15.6667 9.81936 15.7259 9.66992 15.8442 9.55159C15.962 9.43381 16.1112 9.37492 16.2917 9.37492H18.1042C18.2848 9.37492 18.4342 9.43381 18.5525 9.55159C18.6703 9.66992 18.7292 9.81936 18.7292 9.99992C18.7292 10.1805 18.6703 10.3296 18.5525 10.4474C18.4342 10.5658 18.2848 10.6249 18.1042 10.6249H16.2917ZM10 18.7291C9.81949 18.7291 9.67032 18.6702 9.55254 18.5524C9.43421 18.4341 9.37504 18.2846 9.37504 18.1041V16.2916C9.37504 16.111 9.43421 15.9619 9.55254 15.8441C9.67032 15.7258 9.81949 15.6666 10 15.6666C10.1806 15.6666 10.33 15.7258 10.4484 15.8441C10.5662 15.9619 10.625 16.111 10.625 16.2916V18.1041C10.625 18.2846 10.5662 18.4341 10.4484 18.5524C10.33 18.6702 10.1806 18.7291 10 18.7291ZM5.12504 5.99992L3.83337 4.72909C3.69448 4.60409 3.62504 4.45131 3.62504 4.27075C3.62504 4.0902 3.69448 3.94436 3.83337 3.83325C3.94448 3.70825 4.09032 3.64575 4.27087 3.64575C4.45143 3.64575 4.59726 3.70825 4.70837 3.83325L6.02087 5.12492C6.13198 5.24992 6.18754 5.39936 6.18754 5.57325C6.18754 5.74659 6.13198 5.88881 6.02087 5.99992C5.89587 6.11103 5.75004 6.16658 5.58337 6.16658C5.41671 6.16658 5.26393 6.11103 5.12504 5.99992ZM15.2917 16.1666L14 14.8749C13.8889 14.7499 13.8334 14.6005 13.8334 14.4266C13.8334 14.2533 13.8889 14.111 14 13.9999C14.1112 13.8888 14.2534 13.8333 14.4267 13.8333C14.6006 13.8333 14.75 13.8888 14.875 13.9999L16.1667 15.2916C16.2917 15.4027 16.3542 15.5452 16.3542 15.7191C16.3542 15.8924 16.2917 16.0416 16.1667 16.1666C16.0417 16.3055 15.8925 16.3749 15.7192 16.3749C15.5453 16.3749 15.4028 16.3055 15.2917 16.1666ZM1.89587 10.6249C1.71532 10.6249 1.56615 10.5658 1.44837 10.4474C1.33004 10.3296 1.27087 10.1805 1.27087 9.99992C1.27087 9.81936 1.33004 9.66992 1.44837 9.55159C1.56615 9.43381 1.71532 9.37492 1.89587 9.37492H3.70837C3.88893 9.37492 4.03837 9.43381 4.15671 9.55159C4.27448 9.66992 4.33337 9.81936 4.33337 9.99992C4.33337 10.1805 4.27448 10.3296 4.15671 10.4474C4.03837 10.5658 3.88893 10.6249 3.70837 10.6249H1.89587ZM3.83337 16.1666C3.72226 16.0555 3.66337 15.913 3.65671 15.7391C3.64949 15.5658 3.70837 15.4166 3.83337 15.2916L5.12504 13.9999C5.23615 13.8888 5.37504 13.8333 5.54171 13.8333C5.70837 13.8333 5.86115 13.8888 6.00004 13.9999C6.12504 14.1388 6.18754 14.2916 6.18754 14.4583C6.18754 14.6249 6.12504 14.7708 6.00004 14.8958L4.72921 16.1666C4.59032 16.3055 4.43421 16.3749 4.26087 16.3749C4.08698 16.3749 3.94448 16.3055 3.83337 16.1666ZM10 14.5833C8.72226 14.5833 7.63893 14.1388 6.75004 13.2499C5.86115 12.361 5.41671 11.2777 5.41671 9.99992C5.41671 8.72214 5.86115 7.63881 6.75004 6.74992C7.63893 5.86103 8.72226 5.41658 10 5.41658C11.2778 5.41658 12.3612 5.86103 13.25 6.74992C14.1389 7.63881 14.5834 8.72214 14.5834 9.99992C14.5834 11.2777 14.1389 12.361 13.25 13.2499C12.3612 14.1388 11.2778 14.5833 10 14.5833ZM10 13.3333C10.9167 13.3333 11.7014 13.0069 12.3542 12.3541C13.007 11.7013 13.3334 10.9166 13.3334 9.99992C13.3334 9.08325 13.007 8.29853 12.3542 7.64575C11.7014 6.99297 10.9167 6.66658 10 6.66658C9.08337 6.66658 8.29865 6.99297 7.64587 7.64575C6.9931 8.29853 6.66671 9.08325 6.66671 9.99992C6.66671 10.9166 6.9931 11.7013 7.64587 12.3541C8.29865 13.0069 9.08337 13.3333 10 13.3333Z" fill="#3D50D9"/>
</g>
</svg>
