<svg width="36" height="32" viewBox="0 0 36 32" fill="none" xmlns="http://www.w3.org/2000/svg">
<path d="M30.6667 31.1663L26.9583 27.4997H8.83333C6.5 27.4997 4.52778 26.6941 2.91667 25.083C1.30556 23.4719 0.5 21.4997 0.5 19.1663C0.5 17.083 1.17389 15.2708 2.52167 13.7297C3.86833 12.1875 5.51389 11.2775 7.45833 10.9997C7.51389 10.6663 7.61111 10.2986 7.75 9.89634C7.88889 9.49301 8.05556 9.11078 8.25 8.74967L2.41667 2.95801C2.19444 2.70801 2.08333 2.40912 2.08333 2.06134C2.08333 1.71467 2.19444 1.41634 2.41667 1.16634C2.66667 0.944119 2.96556 0.833008 3.31333 0.833008C3.66 0.833008 3.94444 0.944119 4.16667 1.16634L32.4167 29.4163C32.6667 29.6663 32.7917 29.9652 32.7917 30.313C32.7917 30.6597 32.6667 30.9441 32.4167 31.1663C32.1667 31.4163 31.875 31.5486 31.5417 31.563C31.2083 31.5763 30.9167 31.4441 30.6667 31.1663ZM33.4167 25.6663L12.0417 4.29134C13.0139 3.68023 13.9794 3.22856 14.9383 2.93634C15.8961 2.64523 16.9167 2.49967 18 2.49967C21.0278 2.49967 23.5906 3.54801 25.6883 5.64467C27.785 7.74245 28.8333 10.3052 28.8333 13.333V14.1663H29.3333C31.1111 14.3052 32.5833 15.0136 33.75 16.2913C34.9167 17.5691 35.5 19.083 35.5 20.833C35.5 21.7497 35.3267 22.6247 34.98 23.458C34.6322 24.2913 34.1111 25.0274 33.4167 25.6663Z" fill="#D6DBFF"/>
</svg>
