<svg width="20" height="20" viewBox="0 0 20 20" fill="none" xmlns="http://www.w3.org/2000/svg">
<mask id="mask0_386_1728" style="mask-type:alpha" maskUnits="userSpaceOnUse" x="0" y="0" width="20" height="20">
<rect width="20" height="20" fill="#D9D9D9"/>
</mask>
<g mask="url(#mask0_386_1728)">
<path d="M9.99996 12.2086C9.90274 12.2086 9.80913 12.1947 9.71913 12.1669C9.62857 12.1392 9.54857 12.0836 9.47913 12.0003L5.70829 8.25027C5.59718 8.12527 5.54163 7.97944 5.54163 7.81277C5.54163 7.64611 5.60413 7.50027 5.72913 7.37527C5.85413 7.26416 5.99996 7.2086 6.16663 7.2086C6.33329 7.2086 6.47913 7.26416 6.60413 7.37527L9.99996 10.7711L13.4166 7.37527C13.5277 7.25027 13.6666 7.19111 13.8333 7.19777C14 7.20499 14.1458 7.26416 14.2708 7.37527C14.3958 7.50027 14.4583 7.64944 14.4583 7.82277C14.4583 7.99666 14.3958 8.13916 14.2708 8.25027L10.5208 12.0003C10.4513 12.0836 10.3716 12.1392 10.2816 12.1669C10.1911 12.1947 10.0972 12.2086 9.99996 12.2086Z" fill="#4E62EE"/>
</g>
</svg>
