<svg width="20" height="20" viewBox="0 0 20 20" fill="none" xmlns="http://www.w3.org/2000/svg">
<mask id="mask0_167_2173" style="mask-type:alpha" maskUnits="userSpaceOnUse" x="0" y="0" width="20" height="20">
<rect width="20" height="20" fill="#D9D9D9"/>
</mask>
<g mask="url(#mask0_167_2173)">
<path d="M3.75 11.6671C3.75 10.2643 4.15639 8.89626 4.96917 7.56293C5.78139 6.22959 6.89583 5.05598 8.3125 4.04209C8.57639 3.84765 8.85778 3.83015 9.15667 3.98959C9.455 4.14959 9.60417 4.39626 9.60417 4.72959V5.41709C9.60417 5.93098 9.80889 6.37904 10.2183 6.76126C10.6283 7.14293 11.1181 7.33376 11.6875 7.33376C11.9375 7.33376 12.1772 7.28515 12.4067 7.18793C12.6356 7.0907 12.8472 6.95181 13.0417 6.77126C13.1528 6.66015 13.2847 6.59765 13.4375 6.58376C13.5903 6.56987 13.7292 6.61154 13.8542 6.70876C14.6042 7.29209 15.1911 8.02126 15.615 8.89626C16.0383 9.77126 16.25 10.6949 16.25 11.6671C16.25 12.9171 15.92 14.0388 15.26 15.0321C14.6006 16.0249 13.7431 16.7643 12.6875 17.2504C12.9514 16.9588 13.1597 16.6254 13.3125 16.2504C13.4653 15.8754 13.5417 15.4726 13.5417 15.0421C13.5417 14.5838 13.455 14.1426 13.2817 13.7188C13.1078 13.2954 12.8542 12.9171 12.5208 12.5838L10 10.1254L7.5 12.5838C7.16667 12.931 6.90972 13.3093 6.72917 13.7188C6.54861 14.1288 6.45833 14.5699 6.45833 15.0421C6.45833 15.4726 6.53472 15.8754 6.6875 16.2504C6.84028 16.6254 7.04861 16.9588 7.3125 17.2504C6.25694 16.7643 5.39944 16.0249 4.74 15.0321C4.08 14.0388 3.75 12.9171 3.75 11.6671ZM10 11.8754L11.625 13.4588C11.8472 13.681 12.0139 13.924 12.125 14.1879C12.2361 14.4518 12.2917 14.7365 12.2917 15.0421C12.2917 15.6671 12.0694 16.1982 11.625 16.6354C11.1806 17.0732 10.6389 17.2921 10 17.2921C9.36111 17.2921 8.81944 17.0732 8.375 16.6354C7.93056 16.1982 7.70833 15.6671 7.70833 15.0421C7.70833 14.7504 7.76389 14.4693 7.875 14.1988C7.98611 13.9276 8.15278 13.681 8.375 13.4588L10 11.8754Z" fill="white"/>
</g>
</svg>
