<svg width="24" height="24" viewBox="0 0 24 24" fill="none" xmlns="http://www.w3.org/2000/svg">
<g clip-path="url(#clip0_296_2431)">
<mask id="mask0_296_2431" style="mask-type:alpha" maskUnits="userSpaceOnUse" x="0" y="0" width="24" height="24">
<rect width="24" height="24" fill="#D9D9D9"/>
</mask>
<g mask="url(#mask0_296_2431)">
<path d="M11.0999 16.8004H12.8999V10.8004H11.0999V16.8004ZM11.9999 9.00039C12.2495 9.00039 12.4619 8.91279 12.6371 8.73759C12.8123 8.56239 12.8999 8.34999 12.8999 8.10039C12.8999 7.85079 12.8123 7.63839 12.6371 7.46319C12.4619 7.28799 12.2495 7.20039 11.9999 7.20039C11.7503 7.20039 11.5379 7.28799 11.3627 7.46319C11.1875 7.63839 11.0999 7.85079 11.0999 8.10039C11.0999 8.34999 11.1875 8.56239 11.3627 8.73759C11.5379 8.91279 11.7503 9.00039 11.9999 9.00039ZM11.9999 21.6004C10.6831 21.6004 9.4415 21.3504 8.2751 20.8504C7.1087 20.3504 6.0879 19.6628 5.2127 18.7876C4.3375 17.9124 3.6499 16.8916 3.1499 15.7252C2.6499 14.5588 2.3999 13.3172 2.3999 12.0004C2.3999 10.6668 2.6499 9.42079 3.1499 8.26239C3.6499 7.10479 4.3375 6.08839 5.2127 5.21319C6.0879 4.33799 7.1087 3.65039 8.2751 3.15039C9.4415 2.65039 10.6831 2.40039 11.9999 2.40039C13.3335 2.40039 14.5795 2.65039 15.7379 3.15039C16.8955 3.65039 17.9119 4.33799 18.7871 5.21319C19.6623 6.08839 20.3499 7.10479 20.8499 8.26239C21.3499 9.42079 21.5999 10.6668 21.5999 12.0004C21.5999 13.3172 21.3499 14.5588 20.8499 15.7252C20.3499 16.8916 19.6623 17.9124 18.7871 18.7876C17.9119 19.6628 16.8955 20.3504 15.7379 20.8504C14.5795 21.3504 13.3335 21.6004 11.9999 21.6004ZM11.9999 19.8004C14.1663 19.8004 16.0079 19.042 17.5247 17.5252C19.0415 16.0084 19.7999 14.1668 19.7999 12.0004C19.7999 9.83399 19.0415 7.99239 17.5247 6.47559C16.0079 4.95879 14.1663 4.20039 11.9999 4.20039C9.8335 4.20039 7.9919 4.95879 6.4751 6.47559C4.9583 7.99239 4.1999 9.83399 4.1999 12.0004C4.1999 14.1668 4.9583 16.0084 6.4751 17.5252C7.9919 19.042 9.8335 19.8004 11.9999 19.8004Z" fill="white"/>
</g>
</g>
<defs>
<clipPath id="clip0_296_2431">
<rect width="24" height="24" fill="white"/>
</clipPath>
</defs>
</svg>
