<svg width="1440" height="233" viewBox="0 0 1440 233" fill="none" xmlns="http://www.w3.org/2000/svg">
<path fill-rule="evenodd" clip-rule="evenodd" d="M0 90.5958V233H1440V99.9913C1420.69 50.3202 1372.41 15.1139 1315.91 15.1139C1247.09 15.1139 1190.47 67.3575 1183.54 134.351C1174.25 131.084 1164.26 129.308 1153.86 129.308C1135.33 129.308 1118.12 134.943 1103.84 144.594C1094.11 104.501 1057.98 74.7297 1014.9 74.7297C991.352 74.7297 969.884 83.6201 953.666 98.227C935.673 79.1095 910.135 67.1728 881.81 67.1728C857.049 67.1728 834.419 76.2942 817.096 91.3601C797.127 37.993 745.665 0 685.33 0C644.226 0 607.24 17.6327 581.525 45.7467C573.454 43.2991 564.892 41.983 556.022 41.983C507.562 41.983 468.277 81.2675 468.277 129.727C468.277 133.797 468.555 137.801 469.091 141.723C452.773 145.003 438.337 153.481 427.582 165.356C409.13 149.68 385.23 140.223 359.122 140.223C317.153 140.223 280.892 164.66 263.792 200.081C257.25 198.281 250.362 197.32 243.249 197.32C230.223 197.32 217.95 200.544 207.184 206.238C191.463 167.523 153.48 140.223 109.122 140.223C93.9835 140.223 79.588 143.403 66.5664 149.13C56.7015 119.353 31.3185 96.6474 0 90.5958Z" fill="#D6DBFF"/>
</svg>
