<svg width="1440" height="233" viewBox="0 0 1440 233" fill="none" xmlns="http://www.w3.org/2000/svg">
<path fill-rule="evenodd" clip-rule="evenodd" d="M1440 90.5958V233H0V99.9913C19.3115 50.3202 67.5873 15.1139 124.086 15.1139C192.911 15.1139 249.534 67.3575 256.46 134.351C265.747 131.084 275.736 129.308 286.14 129.308C304.67 129.308 321.883 134.943 336.159 144.594C345.888 104.501 382.019 74.7297 425.104 74.7297C448.648 74.7297 470.116 83.6201 486.334 98.227C504.327 79.1095 529.865 67.1728 558.19 67.1728C582.951 67.1728 605.581 76.2942 622.904 91.3601C642.873 37.993 694.335 0 754.67 0C795.774 0 832.76 17.6327 858.475 45.7467C866.546 43.2991 875.108 41.983 883.978 41.983C932.438 41.983 971.723 81.2675 971.723 129.727C971.723 133.797 971.445 137.801 970.909 141.723C987.227 145.003 1001.66 153.481 1012.42 165.356C1030.87 149.68 1054.77 140.223 1080.88 140.223C1122.85 140.223 1159.11 164.66 1176.21 200.081C1182.75 198.281 1189.64 197.32 1196.75 197.32C1209.78 197.32 1222.05 200.544 1232.82 206.238C1248.54 167.523 1286.52 140.223 1330.88 140.223C1346.02 140.223 1360.41 143.403 1373.43 149.13C1383.3 119.353 1408.68 96.6474 1440 90.5958Z" fill="white"/>
</svg>
