<svg width="20" height="20" viewBox="0 0 20 20" fill="none" xmlns="http://www.w3.org/2000/svg">
<path d="M3.72503 6.14575C3.74659 5.93381 3.66396 5.72186 3.5059 5.57817L1.88579 3.62398V3.33301H6.92215L10.8162 11.8718L14.2396 3.33301H19.0424V3.62398L17.6558 4.95312C17.5373 5.04293 17.4762 5.1938 17.5014 5.34108V15.112C17.4762 15.2593 17.5373 15.4102 17.6558 15.5L19.0101 16.8291V17.1201H12.1956V16.8291L13.6002 15.4677C13.7367 15.3312 13.7367 15.2881 13.7367 15.0797V7.18391L9.83188 17.095H9.30382L4.7632 7.18391V13.826C4.72368 14.1062 4.81708 14.3864 5.01465 14.5876L6.83952 16.8004V17.0914H1.66666V16.804L3.49153 14.5876C3.68552 14.3864 3.77532 14.1026 3.72503 13.826V6.14575Z" fill="white"/>
</svg>
