<svg width="20" height="20" viewBox="0 0 20 20" fill="none" xmlns="http://www.w3.org/2000/svg">
<mask id="mask0_315_2057" style="mask-type:alpha" maskUnits="userSpaceOnUse" x="0" y="0" width="20" height="20">
<rect width="20" height="20" fill="#D9D9D9"/>
</mask>
<g mask="url(#mask0_315_2057)">
<path d="M9.99996 12.9792C10.9444 12.9792 11.7463 12.6492 12.4058 11.9892C13.0658 11.3297 13.3958 10.5278 13.3958 9.58333C13.3958 8.63889 13.0658 7.83694 12.4058 7.1775C11.7463 6.5175 10.9444 6.1875 9.99996 6.1875C9.05552 6.1875 8.25357 6.5175 7.59413 7.1775C6.93413 7.83694 6.60413 8.63889 6.60413 9.58333C6.60413 10.5278 6.93413 11.3297 7.59413 11.9892C8.25357 12.6492 9.05552 12.9792 9.99996 12.9792ZM9.99996 11.8333C9.37496 11.8333 8.84385 11.6144 8.40663 11.1767C7.96885 10.7394 7.74996 10.2083 7.74996 9.58333C7.74996 8.95833 7.96885 8.42694 8.40663 7.98917C8.84385 7.55194 9.37496 7.33333 9.99996 7.33333C10.625 7.33333 11.1563 7.55194 11.5941 7.98917C12.0313 8.42694 12.25 8.95833 12.25 9.58333C12.25 10.2083 12.0313 10.7394 11.5941 11.1767C11.1563 11.6144 10.625 11.8333 9.99996 11.8333ZM9.99996 15.4167C8.18052 15.4167 6.51024 14.9375 4.98913 13.9792C3.46857 13.0208 2.30551 11.7222 1.49996 10.0833C1.47218 10.0278 1.45135 9.95472 1.43746 9.86417C1.42357 9.77417 1.41663 9.68056 1.41663 9.58333C1.41663 9.48611 1.42357 9.39222 1.43746 9.30167C1.45135 9.21167 1.47218 9.13889 1.49996 9.08333C2.30551 7.44444 3.46857 6.14583 4.98913 5.1875C6.51024 4.22917 8.18052 3.75 9.99996 3.75C11.8194 3.75 13.4894 4.22917 15.01 5.1875C16.5311 6.14583 17.6944 7.44444 18.5 9.08333C18.5277 9.13889 18.5486 9.21167 18.5625 9.30167C18.5763 9.39222 18.5833 9.48611 18.5833 9.58333C18.5833 9.68056 18.5763 9.77417 18.5625 9.86417C18.5486 9.95472 18.5277 10.0278 18.5 10.0833C17.6944 11.7222 16.5311 13.0208 15.01 13.9792C13.4894 14.9375 11.8194 15.4167 9.99996 15.4167ZM9.99996 14.1667C11.5694 14.1667 13.0105 13.7533 14.3233 12.9267C15.6355 12.1006 16.6388 10.9861 17.3333 9.58333C16.6388 8.18056 15.6355 7.06583 14.3233 6.23917C13.0105 5.41306 11.5694 5 9.99996 5C8.43052 5 6.9894 5.41306 5.67663 6.23917C4.3644 7.06583 3.36107 8.18056 2.66663 9.58333C3.36107 10.9861 4.3644 12.1006 5.67663 12.9267C6.9894 13.7533 8.43052 14.1667 9.99996 14.1667Z" fill="#0B0D13"/>
</g>
</svg>
